G04 #@! TF.GenerationSoftware,KiCad,Pcbnew,(5.99.0-2043-g129c16cf7)*
G04 #@! TF.CreationDate,2020-07-05T22:33:02+02:00*
G04 #@! TF.ProjectId,CC45,43433435-2e6b-4696-9361-645f70636258,rev?*
G04 #@! TF.SameCoordinates,Original*
G04 #@! TF.FileFunction,Paste,Bot*
G04 #@! TF.FilePolarity,Positive*
%FSLAX46Y46*%
G04 Gerber Fmt 4.6, Leading zero omitted, Abs format (unit mm)*
G04 Created by KiCad (PCBNEW (5.99.0-2043-g129c16cf7)) date 2020-07-05 22:33:02*
%MOMM*%
%LPD*%
G01*
G04 APERTURE LIST*
%ADD10R,2.550000X2.500000*%
%ADD11R,1.800000X0.820000*%
%ADD12R,5.080000X5.080000*%
%ADD13R,1.000000X0.300000*%
%ADD14R,0.300000X1.000000*%
%ADD15R,0.820000X1.800000*%
%ADD16R,0.700000X0.600000*%
%ADD17R,0.700000X1.000000*%
%ADD18R,0.300000X2.450000*%
%ADD19R,0.600000X2.450000*%
%ADD20R,1.800000X1.100000*%
G04 APERTURE END LIST*
G36*
G01*
X41818750Y-32900000D02*
X41306250Y-32900000D01*
G75*
G02*
X41087500Y-32681250I0J218750D01*
G01*
X41087500Y-32243750D01*
G75*
G02*
X41306250Y-32025000I218750J0D01*
G01*
X41818750Y-32025000D01*
G75*
G02*
X42037500Y-32243750I0J-218750D01*
G01*
X42037500Y-32681250D01*
G75*
G02*
X41818750Y-32900000I-218750J0D01*
G01*
G37*
G36*
G01*
X41818750Y-34475000D02*
X41306250Y-34475000D01*
G75*
G02*
X41087500Y-34256250I0J218750D01*
G01*
X41087500Y-33818750D01*
G75*
G02*
X41306250Y-33600000I218750J0D01*
G01*
X41818750Y-33600000D01*
G75*
G02*
X42037500Y-33818750I0J-218750D01*
G01*
X42037500Y-34256250D01*
G75*
G02*
X41818750Y-34475000I-218750J0D01*
G01*
G37*
G36*
G01*
X60818750Y-32900000D02*
X60306250Y-32900000D01*
G75*
G02*
X60087500Y-32681250I0J218750D01*
G01*
X60087500Y-32243750D01*
G75*
G02*
X60306250Y-32025000I218750J0D01*
G01*
X60818750Y-32025000D01*
G75*
G02*
X61037500Y-32243750I0J-218750D01*
G01*
X61037500Y-32681250D01*
G75*
G02*
X60818750Y-32900000I-218750J0D01*
G01*
G37*
G36*
G01*
X60818750Y-34475000D02*
X60306250Y-34475000D01*
G75*
G02*
X60087500Y-34256250I0J218750D01*
G01*
X60087500Y-33818750D01*
G75*
G02*
X60306250Y-33600000I218750J0D01*
G01*
X60818750Y-33600000D01*
G75*
G02*
X61037500Y-33818750I0J-218750D01*
G01*
X61037500Y-34256250D01*
G75*
G02*
X60818750Y-34475000I-218750J0D01*
G01*
G37*
G36*
G01*
X79818750Y-32900000D02*
X79306250Y-32900000D01*
G75*
G02*
X79087500Y-32681250I0J218750D01*
G01*
X79087500Y-32243750D01*
G75*
G02*
X79306250Y-32025000I218750J0D01*
G01*
X79818750Y-32025000D01*
G75*
G02*
X80037500Y-32243750I0J-218750D01*
G01*
X80037500Y-32681250D01*
G75*
G02*
X79818750Y-32900000I-218750J0D01*
G01*
G37*
G36*
G01*
X79818750Y-34475000D02*
X79306250Y-34475000D01*
G75*
G02*
X79087500Y-34256250I0J218750D01*
G01*
X79087500Y-33818750D01*
G75*
G02*
X79306250Y-33600000I218750J0D01*
G01*
X79818750Y-33600000D01*
G75*
G02*
X80037500Y-33818750I0J-218750D01*
G01*
X80037500Y-34256250D01*
G75*
G02*
X79818750Y-34475000I-218750J0D01*
G01*
G37*
G36*
G01*
X98818750Y-32900000D02*
X98306250Y-32900000D01*
G75*
G02*
X98087500Y-32681250I0J218750D01*
G01*
X98087500Y-32243750D01*
G75*
G02*
X98306250Y-32025000I218750J0D01*
G01*
X98818750Y-32025000D01*
G75*
G02*
X99037500Y-32243750I0J-218750D01*
G01*
X99037500Y-32681250D01*
G75*
G02*
X98818750Y-32900000I-218750J0D01*
G01*
G37*
G36*
G01*
X98818750Y-34475000D02*
X98306250Y-34475000D01*
G75*
G02*
X98087500Y-34256250I0J218750D01*
G01*
X98087500Y-33818750D01*
G75*
G02*
X98306250Y-33600000I218750J0D01*
G01*
X98818750Y-33600000D01*
G75*
G02*
X99037500Y-33818750I0J-218750D01*
G01*
X99037500Y-34256250D01*
G75*
G02*
X98818750Y-34475000I-218750J0D01*
G01*
G37*
G36*
G01*
X117818750Y-32900000D02*
X117306250Y-32900000D01*
G75*
G02*
X117087500Y-32681250I0J218750D01*
G01*
X117087500Y-32243750D01*
G75*
G02*
X117306250Y-32025000I218750J0D01*
G01*
X117818750Y-32025000D01*
G75*
G02*
X118037500Y-32243750I0J-218750D01*
G01*
X118037500Y-32681250D01*
G75*
G02*
X117818750Y-32900000I-218750J0D01*
G01*
G37*
G36*
G01*
X117818750Y-34475000D02*
X117306250Y-34475000D01*
G75*
G02*
X117087500Y-34256250I0J218750D01*
G01*
X117087500Y-33818750D01*
G75*
G02*
X117306250Y-33600000I218750J0D01*
G01*
X117818750Y-33600000D01*
G75*
G02*
X118037500Y-33818750I0J-218750D01*
G01*
X118037500Y-34256250D01*
G75*
G02*
X117818750Y-34475000I-218750J0D01*
G01*
G37*
G36*
G01*
X136818750Y-32900000D02*
X136306250Y-32900000D01*
G75*
G02*
X136087500Y-32681250I0J218750D01*
G01*
X136087500Y-32243750D01*
G75*
G02*
X136306250Y-32025000I218750J0D01*
G01*
X136818750Y-32025000D01*
G75*
G02*
X137037500Y-32243750I0J-218750D01*
G01*
X137037500Y-32681250D01*
G75*
G02*
X136818750Y-32900000I-218750J0D01*
G01*
G37*
G36*
G01*
X136818750Y-34475000D02*
X136306250Y-34475000D01*
G75*
G02*
X136087500Y-34256250I0J218750D01*
G01*
X136087500Y-33818750D01*
G75*
G02*
X136306250Y-33600000I218750J0D01*
G01*
X136818750Y-33600000D01*
G75*
G02*
X137037500Y-33818750I0J-218750D01*
G01*
X137037500Y-34256250D01*
G75*
G02*
X136818750Y-34475000I-218750J0D01*
G01*
G37*
G36*
G01*
X139194250Y-32924000D02*
X138681750Y-32924000D01*
G75*
G02*
X138463000Y-32705250I0J218750D01*
G01*
X138463000Y-32267750D01*
G75*
G02*
X138681750Y-32049000I218750J0D01*
G01*
X139194250Y-32049000D01*
G75*
G02*
X139413000Y-32267750I0J-218750D01*
G01*
X139413000Y-32705250D01*
G75*
G02*
X139194250Y-32924000I-218750J0D01*
G01*
G37*
G36*
G01*
X139194250Y-34499000D02*
X138681750Y-34499000D01*
G75*
G02*
X138463000Y-34280250I0J218750D01*
G01*
X138463000Y-33842750D01*
G75*
G02*
X138681750Y-33624000I218750J0D01*
G01*
X139194250Y-33624000D01*
G75*
G02*
X139413000Y-33842750I0J-218750D01*
G01*
X139413000Y-34280250D01*
G75*
G02*
X139194250Y-34499000I-218750J0D01*
G01*
G37*
G36*
G01*
X174754250Y-31126000D02*
X174241750Y-31126000D01*
G75*
G02*
X174023000Y-30907250I0J218750D01*
G01*
X174023000Y-30469750D01*
G75*
G02*
X174241750Y-30251000I218750J0D01*
G01*
X174754250Y-30251000D01*
G75*
G02*
X174973000Y-30469750I0J-218750D01*
G01*
X174973000Y-30907250D01*
G75*
G02*
X174754250Y-31126000I-218750J0D01*
G01*
G37*
G36*
G01*
X174754250Y-32701000D02*
X174241750Y-32701000D01*
G75*
G02*
X174023000Y-32482250I0J218750D01*
G01*
X174023000Y-32044750D01*
G75*
G02*
X174241750Y-31826000I218750J0D01*
G01*
X174754250Y-31826000D01*
G75*
G02*
X174973000Y-32044750I0J-218750D01*
G01*
X174973000Y-32482250D01*
G75*
G02*
X174754250Y-32701000I-218750J0D01*
G01*
G37*
G36*
G01*
X193818750Y-32900000D02*
X193306250Y-32900000D01*
G75*
G02*
X193087500Y-32681250I0J218750D01*
G01*
X193087500Y-32243750D01*
G75*
G02*
X193306250Y-32025000I218750J0D01*
G01*
X193818750Y-32025000D01*
G75*
G02*
X194037500Y-32243750I0J-218750D01*
G01*
X194037500Y-32681250D01*
G75*
G02*
X193818750Y-32900000I-218750J0D01*
G01*
G37*
G36*
G01*
X193818750Y-34475000D02*
X193306250Y-34475000D01*
G75*
G02*
X193087500Y-34256250I0J218750D01*
G01*
X193087500Y-33818750D01*
G75*
G02*
X193306250Y-33600000I218750J0D01*
G01*
X193818750Y-33600000D01*
G75*
G02*
X194037500Y-33818750I0J-218750D01*
G01*
X194037500Y-34256250D01*
G75*
G02*
X193818750Y-34475000I-218750J0D01*
G01*
G37*
G36*
G01*
X212818750Y-32900000D02*
X212306250Y-32900000D01*
G75*
G02*
X212087500Y-32681250I0J218750D01*
G01*
X212087500Y-32243750D01*
G75*
G02*
X212306250Y-32025000I218750J0D01*
G01*
X212818750Y-32025000D01*
G75*
G02*
X213037500Y-32243750I0J-218750D01*
G01*
X213037500Y-32681250D01*
G75*
G02*
X212818750Y-32900000I-218750J0D01*
G01*
G37*
G36*
G01*
X212818750Y-34475000D02*
X212306250Y-34475000D01*
G75*
G02*
X212087500Y-34256250I0J218750D01*
G01*
X212087500Y-33818750D01*
G75*
G02*
X212306250Y-33600000I218750J0D01*
G01*
X212818750Y-33600000D01*
G75*
G02*
X213037500Y-33818750I0J-218750D01*
G01*
X213037500Y-34256250D01*
G75*
G02*
X212818750Y-34475000I-218750J0D01*
G01*
G37*
G36*
G01*
X231818750Y-32900000D02*
X231306250Y-32900000D01*
G75*
G02*
X231087500Y-32681250I0J218750D01*
G01*
X231087500Y-32243750D01*
G75*
G02*
X231306250Y-32025000I218750J0D01*
G01*
X231818750Y-32025000D01*
G75*
G02*
X232037500Y-32243750I0J-218750D01*
G01*
X232037500Y-32681250D01*
G75*
G02*
X231818750Y-32900000I-218750J0D01*
G01*
G37*
G36*
G01*
X231818750Y-34475000D02*
X231306250Y-34475000D01*
G75*
G02*
X231087500Y-34256250I0J218750D01*
G01*
X231087500Y-33818750D01*
G75*
G02*
X231306250Y-33600000I218750J0D01*
G01*
X231818750Y-33600000D01*
G75*
G02*
X232037500Y-33818750I0J-218750D01*
G01*
X232037500Y-34256250D01*
G75*
G02*
X231818750Y-34475000I-218750J0D01*
G01*
G37*
G36*
G01*
X250818750Y-32900000D02*
X250306250Y-32900000D01*
G75*
G02*
X250087500Y-32681250I0J218750D01*
G01*
X250087500Y-32243750D01*
G75*
G02*
X250306250Y-32025000I218750J0D01*
G01*
X250818750Y-32025000D01*
G75*
G02*
X251037500Y-32243750I0J-218750D01*
G01*
X251037500Y-32681250D01*
G75*
G02*
X250818750Y-32900000I-218750J0D01*
G01*
G37*
G36*
G01*
X250818750Y-34475000D02*
X250306250Y-34475000D01*
G75*
G02*
X250087500Y-34256250I0J218750D01*
G01*
X250087500Y-33818750D01*
G75*
G02*
X250306250Y-33600000I218750J0D01*
G01*
X250818750Y-33600000D01*
G75*
G02*
X251037500Y-33818750I0J-218750D01*
G01*
X251037500Y-34256250D01*
G75*
G02*
X250818750Y-34475000I-218750J0D01*
G01*
G37*
G36*
G01*
X269818750Y-32900000D02*
X269306250Y-32900000D01*
G75*
G02*
X269087500Y-32681250I0J218750D01*
G01*
X269087500Y-32243750D01*
G75*
G02*
X269306250Y-32025000I218750J0D01*
G01*
X269818750Y-32025000D01*
G75*
G02*
X270037500Y-32243750I0J-218750D01*
G01*
X270037500Y-32681250D01*
G75*
G02*
X269818750Y-32900000I-218750J0D01*
G01*
G37*
G36*
G01*
X269818750Y-34475000D02*
X269306250Y-34475000D01*
G75*
G02*
X269087500Y-34256250I0J218750D01*
G01*
X269087500Y-33818750D01*
G75*
G02*
X269306250Y-33600000I218750J0D01*
G01*
X269818750Y-33600000D01*
G75*
G02*
X270037500Y-33818750I0J-218750D01*
G01*
X270037500Y-34256250D01*
G75*
G02*
X269818750Y-34475000I-218750J0D01*
G01*
G37*
G36*
G01*
X44193750Y-51900000D02*
X43681250Y-51900000D01*
G75*
G02*
X43462500Y-51681250I0J218750D01*
G01*
X43462500Y-51243750D01*
G75*
G02*
X43681250Y-51025000I218750J0D01*
G01*
X44193750Y-51025000D01*
G75*
G02*
X44412500Y-51243750I0J-218750D01*
G01*
X44412500Y-51681250D01*
G75*
G02*
X44193750Y-51900000I-218750J0D01*
G01*
G37*
G36*
G01*
X44193750Y-53475000D02*
X43681250Y-53475000D01*
G75*
G02*
X43462500Y-53256250I0J218750D01*
G01*
X43462500Y-52818750D01*
G75*
G02*
X43681250Y-52600000I218750J0D01*
G01*
X44193750Y-52600000D01*
G75*
G02*
X44412500Y-52818750I0J-218750D01*
G01*
X44412500Y-53256250D01*
G75*
G02*
X44193750Y-53475000I-218750J0D01*
G01*
G37*
G36*
G01*
X65568750Y-51900000D02*
X65056250Y-51900000D01*
G75*
G02*
X64837500Y-51681250I0J218750D01*
G01*
X64837500Y-51243750D01*
G75*
G02*
X65056250Y-51025000I218750J0D01*
G01*
X65568750Y-51025000D01*
G75*
G02*
X65787500Y-51243750I0J-218750D01*
G01*
X65787500Y-51681250D01*
G75*
G02*
X65568750Y-51900000I-218750J0D01*
G01*
G37*
G36*
G01*
X65568750Y-53475000D02*
X65056250Y-53475000D01*
G75*
G02*
X64837500Y-53256250I0J218750D01*
G01*
X64837500Y-52818750D01*
G75*
G02*
X65056250Y-52600000I218750J0D01*
G01*
X65568750Y-52600000D01*
G75*
G02*
X65787500Y-52818750I0J-218750D01*
G01*
X65787500Y-53256250D01*
G75*
G02*
X65568750Y-53475000I-218750J0D01*
G01*
G37*
G36*
G01*
X84568750Y-51900000D02*
X84056250Y-51900000D01*
G75*
G02*
X83837500Y-51681250I0J218750D01*
G01*
X83837500Y-51243750D01*
G75*
G02*
X84056250Y-51025000I218750J0D01*
G01*
X84568750Y-51025000D01*
G75*
G02*
X84787500Y-51243750I0J-218750D01*
G01*
X84787500Y-51681250D01*
G75*
G02*
X84568750Y-51900000I-218750J0D01*
G01*
G37*
G36*
G01*
X84568750Y-53475000D02*
X84056250Y-53475000D01*
G75*
G02*
X83837500Y-53256250I0J218750D01*
G01*
X83837500Y-52818750D01*
G75*
G02*
X84056250Y-52600000I218750J0D01*
G01*
X84568750Y-52600000D01*
G75*
G02*
X84787500Y-52818750I0J-218750D01*
G01*
X84787500Y-53256250D01*
G75*
G02*
X84568750Y-53475000I-218750J0D01*
G01*
G37*
G36*
G01*
X103568750Y-51900000D02*
X103056250Y-51900000D01*
G75*
G02*
X102837500Y-51681250I0J218750D01*
G01*
X102837500Y-51243750D01*
G75*
G02*
X103056250Y-51025000I218750J0D01*
G01*
X103568750Y-51025000D01*
G75*
G02*
X103787500Y-51243750I0J-218750D01*
G01*
X103787500Y-51681250D01*
G75*
G02*
X103568750Y-51900000I-218750J0D01*
G01*
G37*
G36*
G01*
X103568750Y-53475000D02*
X103056250Y-53475000D01*
G75*
G02*
X102837500Y-53256250I0J218750D01*
G01*
X102837500Y-52818750D01*
G75*
G02*
X103056250Y-52600000I218750J0D01*
G01*
X103568750Y-52600000D01*
G75*
G02*
X103787500Y-52818750I0J-218750D01*
G01*
X103787500Y-53256250D01*
G75*
G02*
X103568750Y-53475000I-218750J0D01*
G01*
G37*
G36*
G01*
X122568750Y-51900000D02*
X122056250Y-51900000D01*
G75*
G02*
X121837500Y-51681250I0J218750D01*
G01*
X121837500Y-51243750D01*
G75*
G02*
X122056250Y-51025000I218750J0D01*
G01*
X122568750Y-51025000D01*
G75*
G02*
X122787500Y-51243750I0J-218750D01*
G01*
X122787500Y-51681250D01*
G75*
G02*
X122568750Y-51900000I-218750J0D01*
G01*
G37*
G36*
G01*
X122568750Y-53475000D02*
X122056250Y-53475000D01*
G75*
G02*
X121837500Y-53256250I0J218750D01*
G01*
X121837500Y-52818750D01*
G75*
G02*
X122056250Y-52600000I218750J0D01*
G01*
X122568750Y-52600000D01*
G75*
G02*
X122787500Y-52818750I0J-218750D01*
G01*
X122787500Y-53256250D01*
G75*
G02*
X122568750Y-53475000I-218750J0D01*
G01*
G37*
G36*
G01*
X141480250Y-51900000D02*
X140967750Y-51900000D01*
G75*
G02*
X140749000Y-51681250I0J218750D01*
G01*
X140749000Y-51243750D01*
G75*
G02*
X140967750Y-51025000I218750J0D01*
G01*
X141480250Y-51025000D01*
G75*
G02*
X141699000Y-51243750I0J-218750D01*
G01*
X141699000Y-51681250D01*
G75*
G02*
X141480250Y-51900000I-218750J0D01*
G01*
G37*
G36*
G01*
X141480250Y-53475000D02*
X140967750Y-53475000D01*
G75*
G02*
X140749000Y-53256250I0J218750D01*
G01*
X140749000Y-52818750D01*
G75*
G02*
X140967750Y-52600000I218750J0D01*
G01*
X141480250Y-52600000D01*
G75*
G02*
X141699000Y-52818750I0J-218750D01*
G01*
X141699000Y-53256250D01*
G75*
G02*
X141480250Y-53475000I-218750J0D01*
G01*
G37*
G36*
G01*
X143943750Y-57816000D02*
X143431250Y-57816000D01*
G75*
G02*
X143212500Y-57597250I0J218750D01*
G01*
X143212500Y-57159750D01*
G75*
G02*
X143431250Y-56941000I218750J0D01*
G01*
X143943750Y-56941000D01*
G75*
G02*
X144162500Y-57159750I0J-218750D01*
G01*
X144162500Y-57597250D01*
G75*
G02*
X143943750Y-57816000I-218750J0D01*
G01*
G37*
G36*
G01*
X143943750Y-59391000D02*
X143431250Y-59391000D01*
G75*
G02*
X143212500Y-59172250I0J218750D01*
G01*
X143212500Y-58734750D01*
G75*
G02*
X143431250Y-58516000I218750J0D01*
G01*
X143943750Y-58516000D01*
G75*
G02*
X144162500Y-58734750I0J-218750D01*
G01*
X144162500Y-59172250D01*
G75*
G02*
X143943750Y-59391000I-218750J0D01*
G01*
G37*
G36*
G01*
X179568750Y-51900000D02*
X179056250Y-51900000D01*
G75*
G02*
X178837500Y-51681250I0J218750D01*
G01*
X178837500Y-51243750D01*
G75*
G02*
X179056250Y-51025000I218750J0D01*
G01*
X179568750Y-51025000D01*
G75*
G02*
X179787500Y-51243750I0J-218750D01*
G01*
X179787500Y-51681250D01*
G75*
G02*
X179568750Y-51900000I-218750J0D01*
G01*
G37*
G36*
G01*
X179568750Y-53475000D02*
X179056250Y-53475000D01*
G75*
G02*
X178837500Y-53256250I0J218750D01*
G01*
X178837500Y-52818750D01*
G75*
G02*
X179056250Y-52600000I218750J0D01*
G01*
X179568750Y-52600000D01*
G75*
G02*
X179787500Y-52818750I0J-218750D01*
G01*
X179787500Y-53256250D01*
G75*
G02*
X179568750Y-53475000I-218750J0D01*
G01*
G37*
G36*
G01*
X198568750Y-51900000D02*
X198056250Y-51900000D01*
G75*
G02*
X197837500Y-51681250I0J218750D01*
G01*
X197837500Y-51243750D01*
G75*
G02*
X198056250Y-51025000I218750J0D01*
G01*
X198568750Y-51025000D01*
G75*
G02*
X198787500Y-51243750I0J-218750D01*
G01*
X198787500Y-51681250D01*
G75*
G02*
X198568750Y-51900000I-218750J0D01*
G01*
G37*
G36*
G01*
X198568750Y-53475000D02*
X198056250Y-53475000D01*
G75*
G02*
X197837500Y-53256250I0J218750D01*
G01*
X197837500Y-52818750D01*
G75*
G02*
X198056250Y-52600000I218750J0D01*
G01*
X198568750Y-52600000D01*
G75*
G02*
X198787500Y-52818750I0J-218750D01*
G01*
X198787500Y-53256250D01*
G75*
G02*
X198568750Y-53475000I-218750J0D01*
G01*
G37*
G36*
G01*
X217568750Y-51900000D02*
X217056250Y-51900000D01*
G75*
G02*
X216837500Y-51681250I0J218750D01*
G01*
X216837500Y-51243750D01*
G75*
G02*
X217056250Y-51025000I218750J0D01*
G01*
X217568750Y-51025000D01*
G75*
G02*
X217787500Y-51243750I0J-218750D01*
G01*
X217787500Y-51681250D01*
G75*
G02*
X217568750Y-51900000I-218750J0D01*
G01*
G37*
G36*
G01*
X217568750Y-53475000D02*
X217056250Y-53475000D01*
G75*
G02*
X216837500Y-53256250I0J218750D01*
G01*
X216837500Y-52818750D01*
G75*
G02*
X217056250Y-52600000I218750J0D01*
G01*
X217568750Y-52600000D01*
G75*
G02*
X217787500Y-52818750I0J-218750D01*
G01*
X217787500Y-53256250D01*
G75*
G02*
X217568750Y-53475000I-218750J0D01*
G01*
G37*
G36*
G01*
X227637050Y-41255200D02*
X227124550Y-41255200D01*
G75*
G02*
X226905800Y-41036450I0J218750D01*
G01*
X226905800Y-40598950D01*
G75*
G02*
X227124550Y-40380200I218750J0D01*
G01*
X227637050Y-40380200D01*
G75*
G02*
X227855800Y-40598950I0J-218750D01*
G01*
X227855800Y-41036450D01*
G75*
G02*
X227637050Y-41255200I-218750J0D01*
G01*
G37*
G36*
G01*
X227637050Y-42830200D02*
X227124550Y-42830200D01*
G75*
G02*
X226905800Y-42611450I0J218750D01*
G01*
X226905800Y-42173950D01*
G75*
G02*
X227124550Y-41955200I218750J0D01*
G01*
X227637050Y-41955200D01*
G75*
G02*
X227855800Y-42173950I0J-218750D01*
G01*
X227855800Y-42611450D01*
G75*
G02*
X227637050Y-42830200I-218750J0D01*
G01*
G37*
G36*
G01*
X262693750Y-51900000D02*
X262181250Y-51900000D01*
G75*
G02*
X261962500Y-51681250I0J218750D01*
G01*
X261962500Y-51243750D01*
G75*
G02*
X262181250Y-51025000I218750J0D01*
G01*
X262693750Y-51025000D01*
G75*
G02*
X262912500Y-51243750I0J-218750D01*
G01*
X262912500Y-51681250D01*
G75*
G02*
X262693750Y-51900000I-218750J0D01*
G01*
G37*
G36*
G01*
X262693750Y-53475000D02*
X262181250Y-53475000D01*
G75*
G02*
X261962500Y-53256250I0J218750D01*
G01*
X261962500Y-52818750D01*
G75*
G02*
X262181250Y-52600000I218750J0D01*
G01*
X262693750Y-52600000D01*
G75*
G02*
X262912500Y-52818750I0J-218750D01*
G01*
X262912500Y-53256250D01*
G75*
G02*
X262693750Y-53475000I-218750J0D01*
G01*
G37*
G36*
G01*
X48943750Y-70900000D02*
X48431250Y-70900000D01*
G75*
G02*
X48212500Y-70681250I0J218750D01*
G01*
X48212500Y-70243750D01*
G75*
G02*
X48431250Y-70025000I218750J0D01*
G01*
X48943750Y-70025000D01*
G75*
G02*
X49162500Y-70243750I0J-218750D01*
G01*
X49162500Y-70681250D01*
G75*
G02*
X48943750Y-70900000I-218750J0D01*
G01*
G37*
G36*
G01*
X48943750Y-72475000D02*
X48431250Y-72475000D01*
G75*
G02*
X48212500Y-72256250I0J218750D01*
G01*
X48212500Y-71818750D01*
G75*
G02*
X48431250Y-71600000I218750J0D01*
G01*
X48943750Y-71600000D01*
G75*
G02*
X49162500Y-71818750I0J-218750D01*
G01*
X49162500Y-72256250D01*
G75*
G02*
X48943750Y-72475000I-218750J0D01*
G01*
G37*
G36*
G01*
X75068750Y-70900000D02*
X74556250Y-70900000D01*
G75*
G02*
X74337500Y-70681250I0J218750D01*
G01*
X74337500Y-70243750D01*
G75*
G02*
X74556250Y-70025000I218750J0D01*
G01*
X75068750Y-70025000D01*
G75*
G02*
X75287500Y-70243750I0J-218750D01*
G01*
X75287500Y-70681250D01*
G75*
G02*
X75068750Y-70900000I-218750J0D01*
G01*
G37*
G36*
G01*
X75068750Y-72475000D02*
X74556250Y-72475000D01*
G75*
G02*
X74337500Y-72256250I0J218750D01*
G01*
X74337500Y-71818750D01*
G75*
G02*
X74556250Y-71600000I218750J0D01*
G01*
X75068750Y-71600000D01*
G75*
G02*
X75287500Y-71818750I0J-218750D01*
G01*
X75287500Y-72256250D01*
G75*
G02*
X75068750Y-72475000I-218750J0D01*
G01*
G37*
G36*
G01*
X94068750Y-70900000D02*
X93556250Y-70900000D01*
G75*
G02*
X93337500Y-70681250I0J218750D01*
G01*
X93337500Y-70243750D01*
G75*
G02*
X93556250Y-70025000I218750J0D01*
G01*
X94068750Y-70025000D01*
G75*
G02*
X94287500Y-70243750I0J-218750D01*
G01*
X94287500Y-70681250D01*
G75*
G02*
X94068750Y-70900000I-218750J0D01*
G01*
G37*
G36*
G01*
X94068750Y-72475000D02*
X93556250Y-72475000D01*
G75*
G02*
X93337500Y-72256250I0J218750D01*
G01*
X93337500Y-71818750D01*
G75*
G02*
X93556250Y-71600000I218750J0D01*
G01*
X94068750Y-71600000D01*
G75*
G02*
X94287500Y-71818750I0J-218750D01*
G01*
X94287500Y-72256250D01*
G75*
G02*
X94068750Y-72475000I-218750J0D01*
G01*
G37*
G36*
G01*
X113068750Y-70900000D02*
X112556250Y-70900000D01*
G75*
G02*
X112337500Y-70681250I0J218750D01*
G01*
X112337500Y-70243750D01*
G75*
G02*
X112556250Y-70025000I218750J0D01*
G01*
X113068750Y-70025000D01*
G75*
G02*
X113287500Y-70243750I0J-218750D01*
G01*
X113287500Y-70681250D01*
G75*
G02*
X113068750Y-70900000I-218750J0D01*
G01*
G37*
G36*
G01*
X113068750Y-72475000D02*
X112556250Y-72475000D01*
G75*
G02*
X112337500Y-72256250I0J218750D01*
G01*
X112337500Y-71818750D01*
G75*
G02*
X112556250Y-71600000I218750J0D01*
G01*
X113068750Y-71600000D01*
G75*
G02*
X113287500Y-71818750I0J-218750D01*
G01*
X113287500Y-72256250D01*
G75*
G02*
X113068750Y-72475000I-218750J0D01*
G01*
G37*
G36*
G01*
X116583750Y-64612000D02*
X117096250Y-64612000D01*
G75*
G02*
X117315000Y-64830750I0J-218750D01*
G01*
X117315000Y-65268250D01*
G75*
G02*
X117096250Y-65487000I-218750J0D01*
G01*
X116583750Y-65487000D01*
G75*
G02*
X116365000Y-65268250I0J218750D01*
G01*
X116365000Y-64830750D01*
G75*
G02*
X116583750Y-64612000I218750J0D01*
G01*
G37*
G36*
G01*
X116583750Y-63037000D02*
X117096250Y-63037000D01*
G75*
G02*
X117315000Y-63255750I0J-218750D01*
G01*
X117315000Y-63693250D01*
G75*
G02*
X117096250Y-63912000I-218750J0D01*
G01*
X116583750Y-63912000D01*
G75*
G02*
X116365000Y-63693250I0J218750D01*
G01*
X116365000Y-63255750D01*
G75*
G02*
X116583750Y-63037000I218750J0D01*
G01*
G37*
G36*
G01*
X134871750Y-64886000D02*
X135384250Y-64886000D01*
G75*
G02*
X135603000Y-65104750I0J-218750D01*
G01*
X135603000Y-65542250D01*
G75*
G02*
X135384250Y-65761000I-218750J0D01*
G01*
X134871750Y-65761000D01*
G75*
G02*
X134653000Y-65542250I0J218750D01*
G01*
X134653000Y-65104750D01*
G75*
G02*
X134871750Y-64886000I218750J0D01*
G01*
G37*
G36*
G01*
X134871750Y-63311000D02*
X135384250Y-63311000D01*
G75*
G02*
X135603000Y-63529750I0J-218750D01*
G01*
X135603000Y-63967250D01*
G75*
G02*
X135384250Y-64186000I-218750J0D01*
G01*
X134871750Y-64186000D01*
G75*
G02*
X134653000Y-63967250I0J218750D01*
G01*
X134653000Y-63529750D01*
G75*
G02*
X134871750Y-63311000I218750J0D01*
G01*
G37*
G36*
G01*
X170068750Y-70900000D02*
X169556250Y-70900000D01*
G75*
G02*
X169337500Y-70681250I0J218750D01*
G01*
X169337500Y-70243750D01*
G75*
G02*
X169556250Y-70025000I218750J0D01*
G01*
X170068750Y-70025000D01*
G75*
G02*
X170287500Y-70243750I0J-218750D01*
G01*
X170287500Y-70681250D01*
G75*
G02*
X170068750Y-70900000I-218750J0D01*
G01*
G37*
G36*
G01*
X170068750Y-72475000D02*
X169556250Y-72475000D01*
G75*
G02*
X169337500Y-72256250I0J218750D01*
G01*
X169337500Y-71818750D01*
G75*
G02*
X169556250Y-71600000I218750J0D01*
G01*
X170068750Y-71600000D01*
G75*
G02*
X170287500Y-71818750I0J-218750D01*
G01*
X170287500Y-72256250D01*
G75*
G02*
X170068750Y-72475000I-218750J0D01*
G01*
G37*
G36*
G01*
X189068750Y-70900000D02*
X188556250Y-70900000D01*
G75*
G02*
X188337500Y-70681250I0J218750D01*
G01*
X188337500Y-70243750D01*
G75*
G02*
X188556250Y-70025000I218750J0D01*
G01*
X189068750Y-70025000D01*
G75*
G02*
X189287500Y-70243750I0J-218750D01*
G01*
X189287500Y-70681250D01*
G75*
G02*
X189068750Y-70900000I-218750J0D01*
G01*
G37*
G36*
G01*
X189068750Y-72475000D02*
X188556250Y-72475000D01*
G75*
G02*
X188337500Y-72256250I0J218750D01*
G01*
X188337500Y-71818750D01*
G75*
G02*
X188556250Y-71600000I218750J0D01*
G01*
X189068750Y-71600000D01*
G75*
G02*
X189287500Y-71818750I0J-218750D01*
G01*
X189287500Y-72256250D01*
G75*
G02*
X189068750Y-72475000I-218750J0D01*
G01*
G37*
G36*
G01*
X208068750Y-70900000D02*
X207556250Y-70900000D01*
G75*
G02*
X207337500Y-70681250I0J218750D01*
G01*
X207337500Y-70243750D01*
G75*
G02*
X207556250Y-70025000I218750J0D01*
G01*
X208068750Y-70025000D01*
G75*
G02*
X208287500Y-70243750I0J-218750D01*
G01*
X208287500Y-70681250D01*
G75*
G02*
X208068750Y-70900000I-218750J0D01*
G01*
G37*
G36*
G01*
X208068750Y-72475000D02*
X207556250Y-72475000D01*
G75*
G02*
X207337500Y-72256250I0J218750D01*
G01*
X207337500Y-71818750D01*
G75*
G02*
X207556250Y-71600000I218750J0D01*
G01*
X208068750Y-71600000D01*
G75*
G02*
X208287500Y-71818750I0J-218750D01*
G01*
X208287500Y-72256250D01*
G75*
G02*
X208068750Y-72475000I-218750J0D01*
G01*
G37*
G36*
G01*
X227068750Y-70900000D02*
X226556250Y-70900000D01*
G75*
G02*
X226337500Y-70681250I0J218750D01*
G01*
X226337500Y-70243750D01*
G75*
G02*
X226556250Y-70025000I218750J0D01*
G01*
X227068750Y-70025000D01*
G75*
G02*
X227287500Y-70243750I0J-218750D01*
G01*
X227287500Y-70681250D01*
G75*
G02*
X227068750Y-70900000I-218750J0D01*
G01*
G37*
G36*
G01*
X227068750Y-72475000D02*
X226556250Y-72475000D01*
G75*
G02*
X226337500Y-72256250I0J218750D01*
G01*
X226337500Y-71818750D01*
G75*
G02*
X226556250Y-71600000I218750J0D01*
G01*
X227068750Y-71600000D01*
G75*
G02*
X227287500Y-71818750I0J-218750D01*
G01*
X227287500Y-72256250D01*
G75*
G02*
X227068750Y-72475000I-218750J0D01*
G01*
G37*
G36*
G01*
X246068750Y-70900000D02*
X245556250Y-70900000D01*
G75*
G02*
X245337500Y-70681250I0J218750D01*
G01*
X245337500Y-70243750D01*
G75*
G02*
X245556250Y-70025000I218750J0D01*
G01*
X246068750Y-70025000D01*
G75*
G02*
X246287500Y-70243750I0J-218750D01*
G01*
X246287500Y-70681250D01*
G75*
G02*
X246068750Y-70900000I-218750J0D01*
G01*
G37*
G36*
G01*
X246068750Y-72475000D02*
X245556250Y-72475000D01*
G75*
G02*
X245337500Y-72256250I0J218750D01*
G01*
X245337500Y-71818750D01*
G75*
G02*
X245556250Y-71600000I218750J0D01*
G01*
X246068750Y-71600000D01*
G75*
G02*
X246287500Y-71818750I0J-218750D01*
G01*
X246287500Y-72256250D01*
G75*
G02*
X246068750Y-72475000I-218750J0D01*
G01*
G37*
G36*
G01*
X267443750Y-70900000D02*
X266931250Y-70900000D01*
G75*
G02*
X266712500Y-70681250I0J218750D01*
G01*
X266712500Y-70243750D01*
G75*
G02*
X266931250Y-70025000I218750J0D01*
G01*
X267443750Y-70025000D01*
G75*
G02*
X267662500Y-70243750I0J-218750D01*
G01*
X267662500Y-70681250D01*
G75*
G02*
X267443750Y-70900000I-218750J0D01*
G01*
G37*
G36*
G01*
X267443750Y-72475000D02*
X266931250Y-72475000D01*
G75*
G02*
X266712500Y-72256250I0J218750D01*
G01*
X266712500Y-71818750D01*
G75*
G02*
X266931250Y-71600000I218750J0D01*
G01*
X267443750Y-71600000D01*
G75*
G02*
X267662500Y-71818750I0J-218750D01*
G01*
X267662500Y-72256250D01*
G75*
G02*
X267443750Y-72475000I-218750J0D01*
G01*
G37*
G36*
G01*
X46128650Y-88092800D02*
X45616150Y-88092800D01*
G75*
G02*
X45397400Y-87874050I0J218750D01*
G01*
X45397400Y-87436550D01*
G75*
G02*
X45616150Y-87217800I218750J0D01*
G01*
X46128650Y-87217800D01*
G75*
G02*
X46347400Y-87436550I0J-218750D01*
G01*
X46347400Y-87874050D01*
G75*
G02*
X46128650Y-88092800I-218750J0D01*
G01*
G37*
G36*
G01*
X46128650Y-89667800D02*
X45616150Y-89667800D01*
G75*
G02*
X45397400Y-89449050I0J218750D01*
G01*
X45397400Y-89011550D01*
G75*
G02*
X45616150Y-88792800I218750J0D01*
G01*
X46128650Y-88792800D01*
G75*
G02*
X46347400Y-89011550I0J-218750D01*
G01*
X46347400Y-89449050D01*
G75*
G02*
X46128650Y-89667800I-218750J0D01*
G01*
G37*
G36*
G01*
X69699850Y-92055200D02*
X69187350Y-92055200D01*
G75*
G02*
X68968600Y-91836450I0J218750D01*
G01*
X68968600Y-91398950D01*
G75*
G02*
X69187350Y-91180200I218750J0D01*
G01*
X69699850Y-91180200D01*
G75*
G02*
X69918600Y-91398950I0J-218750D01*
G01*
X69918600Y-91836450D01*
G75*
G02*
X69699850Y-92055200I-218750J0D01*
G01*
G37*
G36*
G01*
X69699850Y-93630200D02*
X69187350Y-93630200D01*
G75*
G02*
X68968600Y-93411450I0J218750D01*
G01*
X68968600Y-92973950D01*
G75*
G02*
X69187350Y-92755200I218750J0D01*
G01*
X69699850Y-92755200D01*
G75*
G02*
X69918600Y-92973950I0J-218750D01*
G01*
X69918600Y-93411450D01*
G75*
G02*
X69699850Y-93630200I-218750J0D01*
G01*
G37*
G36*
G01*
X93423450Y-91140800D02*
X92910950Y-91140800D01*
G75*
G02*
X92692200Y-90922050I0J218750D01*
G01*
X92692200Y-90484550D01*
G75*
G02*
X92910950Y-90265800I218750J0D01*
G01*
X93423450Y-90265800D01*
G75*
G02*
X93642200Y-90484550I0J-218750D01*
G01*
X93642200Y-90922050D01*
G75*
G02*
X93423450Y-91140800I-218750J0D01*
G01*
G37*
G36*
G01*
X93423450Y-92715800D02*
X92910950Y-92715800D01*
G75*
G02*
X92692200Y-92497050I0J218750D01*
G01*
X92692200Y-92059550D01*
G75*
G02*
X92910950Y-91840800I218750J0D01*
G01*
X93423450Y-91840800D01*
G75*
G02*
X93642200Y-92059550I0J-218750D01*
G01*
X93642200Y-92497050D01*
G75*
G02*
X93423450Y-92715800I-218750J0D01*
G01*
G37*
G36*
G01*
X110693750Y-89900000D02*
X110181250Y-89900000D01*
G75*
G02*
X109962500Y-89681250I0J218750D01*
G01*
X109962500Y-89243750D01*
G75*
G02*
X110181250Y-89025000I218750J0D01*
G01*
X110693750Y-89025000D01*
G75*
G02*
X110912500Y-89243750I0J-218750D01*
G01*
X110912500Y-89681250D01*
G75*
G02*
X110693750Y-89900000I-218750J0D01*
G01*
G37*
G36*
G01*
X110693750Y-91475000D02*
X110181250Y-91475000D01*
G75*
G02*
X109962500Y-91256250I0J218750D01*
G01*
X109962500Y-90818750D01*
G75*
G02*
X110181250Y-90600000I218750J0D01*
G01*
X110693750Y-90600000D01*
G75*
G02*
X110912500Y-90818750I0J-218750D01*
G01*
X110912500Y-91256250D01*
G75*
G02*
X110693750Y-91475000I-218750J0D01*
G01*
G37*
G36*
G01*
X140413450Y-87940400D02*
X139900950Y-87940400D01*
G75*
G02*
X139682200Y-87721650I0J218750D01*
G01*
X139682200Y-87284150D01*
G75*
G02*
X139900950Y-87065400I218750J0D01*
G01*
X140413450Y-87065400D01*
G75*
G02*
X140632200Y-87284150I0J-218750D01*
G01*
X140632200Y-87721650D01*
G75*
G02*
X140413450Y-87940400I-218750J0D01*
G01*
G37*
G36*
G01*
X140413450Y-89515400D02*
X139900950Y-89515400D01*
G75*
G02*
X139682200Y-89296650I0J218750D01*
G01*
X139682200Y-88859150D01*
G75*
G02*
X139900950Y-88640400I218750J0D01*
G01*
X140413450Y-88640400D01*
G75*
G02*
X140632200Y-88859150I0J-218750D01*
G01*
X140632200Y-89296650D01*
G75*
G02*
X140413450Y-89515400I-218750J0D01*
G01*
G37*
G36*
G01*
X177193750Y-89900000D02*
X176681250Y-89900000D01*
G75*
G02*
X176462500Y-89681250I0J218750D01*
G01*
X176462500Y-89243750D01*
G75*
G02*
X176681250Y-89025000I218750J0D01*
G01*
X177193750Y-89025000D01*
G75*
G02*
X177412500Y-89243750I0J-218750D01*
G01*
X177412500Y-89681250D01*
G75*
G02*
X177193750Y-89900000I-218750J0D01*
G01*
G37*
G36*
G01*
X177193750Y-91475000D02*
X176681250Y-91475000D01*
G75*
G02*
X176462500Y-91256250I0J218750D01*
G01*
X176462500Y-90818750D01*
G75*
G02*
X176681250Y-90600000I218750J0D01*
G01*
X177193750Y-90600000D01*
G75*
G02*
X177412500Y-90818750I0J-218750D01*
G01*
X177412500Y-91256250D01*
G75*
G02*
X177193750Y-91475000I-218750J0D01*
G01*
G37*
G36*
G01*
X200611936Y-91299997D02*
X200099436Y-91299997D01*
G75*
G02*
X199880686Y-91081247I0J218750D01*
G01*
X199880686Y-90643747D01*
G75*
G02*
X200099436Y-90424997I218750J0D01*
G01*
X200611936Y-90424997D01*
G75*
G02*
X200830686Y-90643747I0J-218750D01*
G01*
X200830686Y-91081247D01*
G75*
G02*
X200611936Y-91299997I-218750J0D01*
G01*
G37*
G36*
G01*
X200611936Y-92874997D02*
X200099436Y-92874997D01*
G75*
G02*
X199880686Y-92656247I0J218750D01*
G01*
X199880686Y-92218747D01*
G75*
G02*
X200099436Y-91999997I218750J0D01*
G01*
X200611936Y-91999997D01*
G75*
G02*
X200830686Y-92218747I0J-218750D01*
G01*
X200830686Y-92656247D01*
G75*
G02*
X200611936Y-92874997I-218750J0D01*
G01*
G37*
G36*
G01*
X224436650Y-91140800D02*
X223924150Y-91140800D01*
G75*
G02*
X223705400Y-90922050I0J218750D01*
G01*
X223705400Y-90484550D01*
G75*
G02*
X223924150Y-90265800I218750J0D01*
G01*
X224436650Y-90265800D01*
G75*
G02*
X224655400Y-90484550I0J-218750D01*
G01*
X224655400Y-90922050D01*
G75*
G02*
X224436650Y-91140800I-218750J0D01*
G01*
G37*
G36*
G01*
X224436650Y-92715800D02*
X223924150Y-92715800D01*
G75*
G02*
X223705400Y-92497050I0J218750D01*
G01*
X223705400Y-92059550D01*
G75*
G02*
X223924150Y-91840800I218750J0D01*
G01*
X224436650Y-91840800D01*
G75*
G02*
X224655400Y-92059550I0J-218750D01*
G01*
X224655400Y-92497050D01*
G75*
G02*
X224436650Y-92715800I-218750J0D01*
G01*
G37*
G36*
G01*
X244553450Y-87610500D02*
X244040950Y-87610500D01*
G75*
G02*
X243822200Y-87391750I0J218750D01*
G01*
X243822200Y-86954250D01*
G75*
G02*
X244040950Y-86735500I218750J0D01*
G01*
X244553450Y-86735500D01*
G75*
G02*
X244772200Y-86954250I0J-218750D01*
G01*
X244772200Y-87391750D01*
G75*
G02*
X244553450Y-87610500I-218750J0D01*
G01*
G37*
G36*
G01*
X244553450Y-86035500D02*
X244040950Y-86035500D01*
G75*
G02*
X243822200Y-85816750I0J218750D01*
G01*
X243822200Y-85379250D01*
G75*
G02*
X244040950Y-85160500I218750J0D01*
G01*
X244553450Y-85160500D01*
G75*
G02*
X244772200Y-85379250I0J-218750D01*
G01*
X244772200Y-85816750D01*
G75*
G02*
X244553450Y-86035500I-218750J0D01*
G01*
G37*
G36*
G01*
X267443750Y-89900000D02*
X266931250Y-89900000D01*
G75*
G02*
X266712500Y-89681250I0J218750D01*
G01*
X266712500Y-89243750D01*
G75*
G02*
X266931250Y-89025000I218750J0D01*
G01*
X267443750Y-89025000D01*
G75*
G02*
X267662500Y-89243750I0J-218750D01*
G01*
X267662500Y-89681250D01*
G75*
G02*
X267443750Y-89900000I-218750J0D01*
G01*
G37*
G36*
G01*
X267443750Y-91475000D02*
X266931250Y-91475000D01*
G75*
G02*
X266712500Y-91256250I0J218750D01*
G01*
X266712500Y-90818750D01*
G75*
G02*
X266931250Y-90600000I218750J0D01*
G01*
X267443750Y-90600000D01*
G75*
G02*
X267662500Y-90818750I0J-218750D01*
G01*
X267662500Y-91256250D01*
G75*
G02*
X267443750Y-91475000I-218750J0D01*
G01*
G37*
G36*
X168126795Y-85746112D02*
G01*
X168798500Y-85275780D01*
X169830937Y-86750254D01*
X169159232Y-87220586D01*
X168126795Y-85746112D01*
G37*
G36*
X166898067Y-86606476D02*
G01*
X167569772Y-86136144D01*
X168602209Y-87610618D01*
X167930504Y-88080950D01*
X166898067Y-86606476D01*
G37*
G36*
X165258913Y-81650351D02*
G01*
X165930618Y-81180019D01*
X166963055Y-82654493D01*
X166291350Y-83124825D01*
X165258913Y-81650351D01*
G37*
G36*
X164030185Y-82510716D02*
G01*
X164701890Y-82040384D01*
X165734327Y-83514858D01*
X165062622Y-83985190D01*
X164030185Y-82510716D01*
G37*
D10*
X171235000Y-92790000D03*
X157785000Y-95330000D03*
D11*
X166437500Y-97306700D03*
X166437500Y-95806700D03*
X171437500Y-97306700D03*
X171437500Y-95806700D03*
D10*
X161265000Y-87710000D03*
X174715000Y-85170000D03*
D12*
X240919000Y-56642000D03*
D13*
X237569000Y-59142000D03*
X237569000Y-58642000D03*
X237569000Y-58142000D03*
X237569000Y-57642000D03*
X237569000Y-57142000D03*
X237569000Y-56642000D03*
X237569000Y-56142000D03*
X237569000Y-55642000D03*
X237569000Y-55142000D03*
X237569000Y-54642000D03*
X237569000Y-54142000D03*
D14*
X238419000Y-53292000D03*
X238919000Y-53292000D03*
X239419000Y-53292000D03*
X239919000Y-53292000D03*
X240419000Y-53292000D03*
X240919000Y-53292000D03*
X241419000Y-53292000D03*
X241919000Y-53292000D03*
X242419000Y-53292000D03*
X242919000Y-53292000D03*
X243419000Y-53292000D03*
D13*
X244269000Y-54142000D03*
X244269000Y-54642000D03*
X244269000Y-55142000D03*
X244269000Y-55642000D03*
X244269000Y-56142000D03*
X244269000Y-56642000D03*
X244269000Y-57142000D03*
X244269000Y-57642000D03*
X244269000Y-58142000D03*
X244269000Y-58642000D03*
X244269000Y-59142000D03*
D14*
X243419000Y-59992000D03*
X242919000Y-59992000D03*
X242419000Y-59992000D03*
X241919000Y-59992000D03*
X241419000Y-59992000D03*
X240919000Y-59992000D03*
X240419000Y-59992000D03*
X239919000Y-59992000D03*
X239419000Y-59992000D03*
X238919000Y-59992000D03*
X238419000Y-59992000D03*
G36*
X257789097Y-84929445D02*
G01*
X258368925Y-84349617D01*
X259641717Y-85622409D01*
X259061889Y-86202237D01*
X257789097Y-84929445D01*
G37*
G36*
X256728437Y-85990105D02*
G01*
X257308265Y-85410277D01*
X258581057Y-86683069D01*
X258001229Y-87262897D01*
X256728437Y-85990105D01*
G37*
G36*
X254253563Y-81393911D02*
G01*
X254833391Y-80814083D01*
X256106183Y-82086875D01*
X255526355Y-82666703D01*
X254253563Y-81393911D01*
G37*
G36*
X253192903Y-82454571D02*
G01*
X253772731Y-81874743D01*
X255045523Y-83147535D01*
X254465695Y-83727363D01*
X253192903Y-82454571D01*
G37*
D10*
X263860000Y-92790000D03*
X250410000Y-95330000D03*
D15*
X235698000Y-87405200D03*
X234198000Y-87405200D03*
X235698000Y-82405200D03*
X234198000Y-82405200D03*
D10*
X244860000Y-92790000D03*
X231410000Y-95330000D03*
D15*
X154030400Y-93450400D03*
X155530400Y-93450400D03*
X154030400Y-98450400D03*
X155530400Y-98450400D03*
D10*
X149415000Y-87710000D03*
X162865000Y-85170000D03*
D15*
X234578800Y-92993200D03*
X236078800Y-92993200D03*
X234578800Y-97993200D03*
X236078800Y-97993200D03*
D10*
X225390000Y-87710000D03*
X238840000Y-85170000D03*
G36*
X260926637Y-97352465D02*
G01*
X261506465Y-96772637D01*
X262779257Y-98045429D01*
X262199429Y-98625257D01*
X260926637Y-97352465D01*
G37*
G36*
X259865977Y-98413125D02*
G01*
X260445805Y-97833297D01*
X261718597Y-99106089D01*
X261138769Y-99685917D01*
X259865977Y-98413125D01*
G37*
G36*
X257391103Y-93816931D02*
G01*
X257970931Y-93237103D01*
X259243723Y-94509895D01*
X258663895Y-95089723D01*
X257391103Y-93816931D01*
G37*
G36*
X256330443Y-94877591D02*
G01*
X256910271Y-94297763D01*
X258183063Y-95570555D01*
X257603235Y-96150383D01*
X256330443Y-94877591D01*
G37*
X251515000Y-87710000D03*
X264965000Y-85170000D03*
D11*
X59187500Y-83193300D03*
X59187500Y-84693300D03*
X54187500Y-83193300D03*
X54187500Y-84693300D03*
D10*
X64360000Y-92790000D03*
X50910000Y-95330000D03*
G36*
X36453560Y-86014220D02*
G01*
X37081716Y-86541306D01*
X35924698Y-87920186D01*
X35296542Y-87393100D01*
X36453560Y-86014220D01*
G37*
G36*
X35304493Y-85050039D02*
G01*
X35932649Y-85577125D01*
X34775631Y-86956005D01*
X34147475Y-86428919D01*
X35304493Y-85050039D01*
G37*
G36*
X39667498Y-82183998D02*
G01*
X40295654Y-82711084D01*
X39138636Y-84089964D01*
X38510480Y-83562878D01*
X39667498Y-82183998D01*
G37*
G36*
X38518431Y-81219817D02*
G01*
X39146587Y-81746903D01*
X37989569Y-83125783D01*
X37361413Y-82598697D01*
X38518431Y-81219817D01*
G37*
X45360000Y-92790000D03*
X31910000Y-95330000D03*
D11*
X64562500Y-95156700D03*
X64562500Y-96656700D03*
X59562500Y-95156700D03*
X59562500Y-96656700D03*
D10*
X54390000Y-87710000D03*
X67840000Y-85170000D03*
G36*
X37215058Y-94789250D02*
G01*
X36635230Y-94209422D01*
X37908022Y-92936630D01*
X38487850Y-93516458D01*
X37215058Y-94789250D01*
G37*
G36*
X38275718Y-95849910D02*
G01*
X37695890Y-95270082D01*
X38968682Y-93997290D01*
X39548510Y-94577118D01*
X38275718Y-95849910D01*
G37*
G36*
X33679524Y-98324784D02*
G01*
X33099696Y-97744956D01*
X34372488Y-96472164D01*
X34952316Y-97051992D01*
X33679524Y-98324784D01*
G37*
G36*
X34740184Y-99385444D02*
G01*
X34160356Y-98805616D01*
X35433148Y-97532824D01*
X36012976Y-98112652D01*
X34740184Y-99385444D01*
G37*
X28265000Y-87710000D03*
X41715000Y-85170000D03*
D15*
X253362500Y-55731700D03*
X254862500Y-55731700D03*
X253362500Y-60731700D03*
X254862500Y-60731700D03*
D10*
X246765000Y-49710000D03*
X260215000Y-47170000D03*
D15*
X39612500Y-74731700D03*
X41112500Y-74731700D03*
X39612500Y-79731700D03*
X41112500Y-79731700D03*
D10*
X33015000Y-68710000D03*
X46465000Y-66170000D03*
G36*
X241085821Y-48349876D02*
G01*
X241651507Y-48915562D01*
X241015111Y-49551958D01*
X240449425Y-48986272D01*
X241085821Y-48349876D01*
G37*
G36*
X240095872Y-49339825D02*
G01*
X240661558Y-49905511D01*
X240025162Y-50541907D01*
X239459476Y-49976221D01*
X240095872Y-49339825D01*
G37*
G36*
X240873689Y-50117642D02*
G01*
X241439375Y-50683328D01*
X240802979Y-51319724D01*
X240237293Y-50754038D01*
X240873689Y-50117642D01*
G37*
G36*
X241863638Y-49127693D02*
G01*
X242429324Y-49693379D01*
X241792928Y-50329775D01*
X241227242Y-49764089D01*
X241863638Y-49127693D01*
G37*
G36*
G01*
X152459500Y-29974250D02*
X152459500Y-29461750D01*
G75*
G02*
X152678250Y-29243000I218750J0D01*
G01*
X153115750Y-29243000D01*
G75*
G02*
X153334500Y-29461750I0J-218750D01*
G01*
X153334500Y-29974250D01*
G75*
G02*
X153115750Y-30193000I-218750J0D01*
G01*
X152678250Y-30193000D01*
G75*
G02*
X152459500Y-29974250I0J218750D01*
G01*
G37*
G36*
G01*
X150884500Y-29974250D02*
X150884500Y-29461750D01*
G75*
G02*
X151103250Y-29243000I218750J0D01*
G01*
X151540750Y-29243000D01*
G75*
G02*
X151759500Y-29461750I0J-218750D01*
G01*
X151759500Y-29974250D01*
G75*
G02*
X151540750Y-30193000I-218750J0D01*
G01*
X151103250Y-30193000D01*
G75*
G02*
X150884500Y-29974250I0J218750D01*
G01*
G37*
G36*
G01*
X162049750Y-29342500D02*
X162562250Y-29342500D01*
G75*
G02*
X162781000Y-29561250I0J-218750D01*
G01*
X162781000Y-29998750D01*
G75*
G02*
X162562250Y-30217500I-218750J0D01*
G01*
X162049750Y-30217500D01*
G75*
G02*
X161831000Y-29998750I0J218750D01*
G01*
X161831000Y-29561250D01*
G75*
G02*
X162049750Y-29342500I218750J0D01*
G01*
G37*
G36*
G01*
X162049750Y-27767500D02*
X162562250Y-27767500D01*
G75*
G02*
X162781000Y-27986250I0J-218750D01*
G01*
X162781000Y-28423750D01*
G75*
G02*
X162562250Y-28642500I-218750J0D01*
G01*
X162049750Y-28642500D01*
G75*
G02*
X161831000Y-28423750I0J218750D01*
G01*
X161831000Y-27986250D01*
G75*
G02*
X162049750Y-27767500I218750J0D01*
G01*
G37*
G36*
G01*
X239756500Y-44549350D02*
X239756500Y-45061850D01*
G75*
G02*
X239537750Y-45280600I-218750J0D01*
G01*
X239100250Y-45280600D01*
G75*
G02*
X238881500Y-45061850I0J218750D01*
G01*
X238881500Y-44549350D01*
G75*
G02*
X239100250Y-44330600I218750J0D01*
G01*
X239537750Y-44330600D01*
G75*
G02*
X239756500Y-44549350I0J-218750D01*
G01*
G37*
G36*
G01*
X238181500Y-44549350D02*
X238181500Y-45061850D01*
G75*
G02*
X237962750Y-45280600I-218750J0D01*
G01*
X237525250Y-45280600D01*
G75*
G02*
X237306500Y-45061850I0J218750D01*
G01*
X237306500Y-44549350D01*
G75*
G02*
X237525250Y-44330600I218750J0D01*
G01*
X237962750Y-44330600D01*
G75*
G02*
X238181500Y-44549350I0J-218750D01*
G01*
G37*
G36*
G01*
X233279200Y-56944550D02*
X233279200Y-57457050D01*
G75*
G02*
X233060450Y-57675800I-218750J0D01*
G01*
X232622950Y-57675800D01*
G75*
G02*
X232404200Y-57457050I0J218750D01*
G01*
X232404200Y-56944550D01*
G75*
G02*
X232622950Y-56725800I218750J0D01*
G01*
X233060450Y-56725800D01*
G75*
G02*
X233279200Y-56944550I0J-218750D01*
G01*
G37*
G36*
G01*
X234854200Y-56944550D02*
X234854200Y-57457050D01*
G75*
G02*
X234635450Y-57675800I-218750J0D01*
G01*
X234197950Y-57675800D01*
G75*
G02*
X233979200Y-57457050I0J218750D01*
G01*
X233979200Y-56944550D01*
G75*
G02*
X234197950Y-56725800I218750J0D01*
G01*
X234635450Y-56725800D01*
G75*
G02*
X234854200Y-56944550I0J-218750D01*
G01*
G37*
G36*
G01*
X233355300Y-58417750D02*
X233355300Y-58930250D01*
G75*
G02*
X233136550Y-59149000I-218750J0D01*
G01*
X232699050Y-59149000D01*
G75*
G02*
X232480300Y-58930250I0J218750D01*
G01*
X232480300Y-58417750D01*
G75*
G02*
X232699050Y-58199000I218750J0D01*
G01*
X233136550Y-58199000D01*
G75*
G02*
X233355300Y-58417750I0J-218750D01*
G01*
G37*
G36*
G01*
X234930300Y-58417750D02*
X234930300Y-58930250D01*
G75*
G02*
X234711550Y-59149000I-218750J0D01*
G01*
X234274050Y-59149000D01*
G75*
G02*
X234055300Y-58930250I0J218750D01*
G01*
X234055300Y-58417750D01*
G75*
G02*
X234274050Y-58199000I218750J0D01*
G01*
X234711550Y-58199000D01*
G75*
G02*
X234930300Y-58417750I0J-218750D01*
G01*
G37*
G36*
G01*
X245902900Y-60144950D02*
X245902900Y-60657450D01*
G75*
G02*
X245684150Y-60876200I-218750J0D01*
G01*
X245246650Y-60876200D01*
G75*
G02*
X245027900Y-60657450I0J218750D01*
G01*
X245027900Y-60144950D01*
G75*
G02*
X245246650Y-59926200I218750J0D01*
G01*
X245684150Y-59926200D01*
G75*
G02*
X245902900Y-60144950I0J-218750D01*
G01*
G37*
G36*
G01*
X247477900Y-60144950D02*
X247477900Y-60657450D01*
G75*
G02*
X247259150Y-60876200I-218750J0D01*
G01*
X246821650Y-60876200D01*
G75*
G02*
X246602900Y-60657450I0J218750D01*
G01*
X246602900Y-60144950D01*
G75*
G02*
X246821650Y-59926200I218750J0D01*
G01*
X247259150Y-59926200D01*
G75*
G02*
X247477900Y-60144950I0J-218750D01*
G01*
G37*
G36*
G01*
X243388400Y-62278550D02*
X243388400Y-62791050D01*
G75*
G02*
X243169650Y-63009800I-218750J0D01*
G01*
X242732150Y-63009800D01*
G75*
G02*
X242513400Y-62791050I0J218750D01*
G01*
X242513400Y-62278550D01*
G75*
G02*
X242732150Y-62059800I218750J0D01*
G01*
X243169650Y-62059800D01*
G75*
G02*
X243388400Y-62278550I0J-218750D01*
G01*
G37*
G36*
G01*
X244963400Y-62278550D02*
X244963400Y-62791050D01*
G75*
G02*
X244744650Y-63009800I-218750J0D01*
G01*
X244307150Y-63009800D01*
G75*
G02*
X244088400Y-62791050I0J218750D01*
G01*
X244088400Y-62278550D01*
G75*
G02*
X244307150Y-62059800I218750J0D01*
G01*
X244744650Y-62059800D01*
G75*
G02*
X244963400Y-62278550I0J-218750D01*
G01*
G37*
G36*
G01*
X239643931Y-48195662D02*
X239281538Y-47833269D01*
G75*
G02*
X239281538Y-47523909I154680J154680D01*
G01*
X239590897Y-47214550D01*
G75*
G02*
X239900257Y-47214550I154680J-154680D01*
G01*
X240262650Y-47576943D01*
G75*
G02*
X240262650Y-47886303I-154680J-154680D01*
G01*
X239953291Y-48195662D01*
G75*
G02*
X239643931Y-48195662I-154680J154680D01*
G01*
G37*
G36*
G01*
X238530237Y-49309356D02*
X238167844Y-48946963D01*
G75*
G02*
X238167844Y-48637603I154680J154680D01*
G01*
X238477203Y-48328244D01*
G75*
G02*
X238786563Y-48328244I154680J-154680D01*
G01*
X239148956Y-48690637D01*
G75*
G02*
X239148956Y-48999997I-154680J-154680D01*
G01*
X238839597Y-49309356D01*
G75*
G02*
X238530237Y-49309356I-154680J154680D01*
G01*
G37*
G36*
G01*
X242658062Y-47782469D02*
X242295669Y-48144862D01*
G75*
G02*
X241986309Y-48144862I-154680J154680D01*
G01*
X241676950Y-47835503D01*
G75*
G02*
X241676950Y-47526143I154680J154680D01*
G01*
X242039343Y-47163750D01*
G75*
G02*
X242348703Y-47163750I154680J-154680D01*
G01*
X242658062Y-47473109D01*
G75*
G02*
X242658062Y-47782469I-154680J-154680D01*
G01*
G37*
G36*
G01*
X243771756Y-48896163D02*
X243409363Y-49258556D01*
G75*
G02*
X243100003Y-49258556I-154680J154680D01*
G01*
X242790644Y-48949197D01*
G75*
G02*
X242790644Y-48639837I154680J154680D01*
G01*
X243153037Y-48277444D01*
G75*
G02*
X243462397Y-48277444I154680J-154680D01*
G01*
X243771756Y-48586803D01*
G75*
G02*
X243771756Y-48896163I-154680J-154680D01*
G01*
G37*
G36*
G01*
X232542500Y-54353750D02*
X232542500Y-54866250D01*
G75*
G02*
X232323750Y-55085000I-218750J0D01*
G01*
X231886250Y-55085000D01*
G75*
G02*
X231667500Y-54866250I0J218750D01*
G01*
X231667500Y-54353750D01*
G75*
G02*
X231886250Y-54135000I218750J0D01*
G01*
X232323750Y-54135000D01*
G75*
G02*
X232542500Y-54353750I0J-218750D01*
G01*
G37*
G36*
G01*
X234117500Y-54353750D02*
X234117500Y-54866250D01*
G75*
G02*
X233898750Y-55085000I-218750J0D01*
G01*
X233461250Y-55085000D01*
G75*
G02*
X233242500Y-54866250I0J218750D01*
G01*
X233242500Y-54353750D01*
G75*
G02*
X233461250Y-54135000I218750J0D01*
G01*
X233898750Y-54135000D01*
G75*
G02*
X234117500Y-54353750I0J-218750D01*
G01*
G37*
G36*
G01*
X238398800Y-62537050D02*
X238398800Y-62024550D01*
G75*
G02*
X238617550Y-61805800I218750J0D01*
G01*
X239055050Y-61805800D01*
G75*
G02*
X239273800Y-62024550I0J-218750D01*
G01*
X239273800Y-62537050D01*
G75*
G02*
X239055050Y-62755800I-218750J0D01*
G01*
X238617550Y-62755800D01*
G75*
G02*
X238398800Y-62537050I0J218750D01*
G01*
G37*
G36*
G01*
X236823800Y-62537050D02*
X236823800Y-62024550D01*
G75*
G02*
X237042550Y-61805800I218750J0D01*
G01*
X237480050Y-61805800D01*
G75*
G02*
X237698800Y-62024550I0J-218750D01*
G01*
X237698800Y-62537050D01*
G75*
G02*
X237480050Y-62755800I-218750J0D01*
G01*
X237042550Y-62755800D01*
G75*
G02*
X236823800Y-62537050I0J218750D01*
G01*
G37*
G36*
G01*
X237484400Y-51462650D02*
X237484400Y-50950150D01*
G75*
G02*
X237703150Y-50731400I218750J0D01*
G01*
X238140650Y-50731400D01*
G75*
G02*
X238359400Y-50950150I0J-218750D01*
G01*
X238359400Y-51462650D01*
G75*
G02*
X238140650Y-51681400I-218750J0D01*
G01*
X237703150Y-51681400D01*
G75*
G02*
X237484400Y-51462650I0J218750D01*
G01*
G37*
G36*
G01*
X235909400Y-51462650D02*
X235909400Y-50950150D01*
G75*
G02*
X236128150Y-50731400I218750J0D01*
G01*
X236565650Y-50731400D01*
G75*
G02*
X236784400Y-50950150I0J-218750D01*
G01*
X236784400Y-51462650D01*
G75*
G02*
X236565650Y-51681400I-218750J0D01*
G01*
X236128150Y-51681400D01*
G75*
G02*
X235909400Y-51462650I0J218750D01*
G01*
G37*
G36*
G01*
X246128250Y-53066100D02*
X245615750Y-53066100D01*
G75*
G02*
X245397000Y-52847350I0J218750D01*
G01*
X245397000Y-52409850D01*
G75*
G02*
X245615750Y-52191100I218750J0D01*
G01*
X246128250Y-52191100D01*
G75*
G02*
X246347000Y-52409850I0J-218750D01*
G01*
X246347000Y-52847350D01*
G75*
G02*
X246128250Y-53066100I-218750J0D01*
G01*
G37*
G36*
G01*
X246128250Y-54641100D02*
X245615750Y-54641100D01*
G75*
G02*
X245397000Y-54422350I0J218750D01*
G01*
X245397000Y-53984850D01*
G75*
G02*
X245615750Y-53766100I218750J0D01*
G01*
X246128250Y-53766100D01*
G75*
G02*
X246347000Y-53984850I0J-218750D01*
G01*
X246347000Y-54422350D01*
G75*
G02*
X246128250Y-54641100I-218750J0D01*
G01*
G37*
G36*
G01*
X233834650Y-60762400D02*
X233322150Y-60762400D01*
G75*
G02*
X233103400Y-60543650I0J218750D01*
G01*
X233103400Y-60106150D01*
G75*
G02*
X233322150Y-59887400I218750J0D01*
G01*
X233834650Y-59887400D01*
G75*
G02*
X234053400Y-60106150I0J-218750D01*
G01*
X234053400Y-60543650D01*
G75*
G02*
X233834650Y-60762400I-218750J0D01*
G01*
G37*
G36*
G01*
X233834650Y-62337400D02*
X233322150Y-62337400D01*
G75*
G02*
X233103400Y-62118650I0J218750D01*
G01*
X233103400Y-61681150D01*
G75*
G02*
X233322150Y-61462400I218750J0D01*
G01*
X233834650Y-61462400D01*
G75*
G02*
X234053400Y-61681150I0J-218750D01*
G01*
X234053400Y-62118650D01*
G75*
G02*
X233834650Y-62337400I-218750J0D01*
G01*
G37*
G36*
G01*
X156806600Y-40472201D02*
X156806600Y-41722199D01*
G75*
G02*
X156556599Y-41972200I-250001J0D01*
G01*
X155631601Y-41972200D01*
G75*
G02*
X155381600Y-41722199I0J250001D01*
G01*
X155381600Y-40472201D01*
G75*
G02*
X155631601Y-40222200I250001J0D01*
G01*
X156556599Y-40222200D01*
G75*
G02*
X156806600Y-40472201I0J-250001D01*
G01*
G37*
G36*
G01*
X159781600Y-40472201D02*
X159781600Y-41722199D01*
G75*
G02*
X159531599Y-41972200I-250001J0D01*
G01*
X158606601Y-41972200D01*
G75*
G02*
X158356600Y-41722199I0J250001D01*
G01*
X158356600Y-40472201D01*
G75*
G02*
X158606601Y-40222200I250001J0D01*
G01*
X159531599Y-40222200D01*
G75*
G02*
X159781600Y-40472201I0J-250001D01*
G01*
G37*
D15*
X32487500Y-36731700D03*
X33987500Y-36731700D03*
X32487500Y-41731700D03*
X33987500Y-41731700D03*
D10*
X25890000Y-30710000D03*
X39340000Y-28170000D03*
D15*
X51487500Y-36731700D03*
X52987500Y-36731700D03*
X51487500Y-41731700D03*
X52987500Y-41731700D03*
D10*
X44890000Y-30710000D03*
X58340000Y-28170000D03*
D15*
X70487500Y-36731700D03*
X71987500Y-36731700D03*
X70487500Y-41731700D03*
X71987500Y-41731700D03*
D10*
X63890000Y-30710000D03*
X77340000Y-28170000D03*
D15*
X89487500Y-36731700D03*
X90987500Y-36731700D03*
X89487500Y-41731700D03*
X90987500Y-41731700D03*
D10*
X82890000Y-30710000D03*
X96340000Y-28170000D03*
D15*
X108487500Y-36731700D03*
X109987500Y-36731700D03*
X108487500Y-41731700D03*
X109987500Y-41731700D03*
D10*
X101890000Y-30710000D03*
X115340000Y-28170000D03*
D15*
X127487500Y-36731700D03*
X128987500Y-36731700D03*
X127487500Y-41731700D03*
X128987500Y-41731700D03*
D10*
X120890000Y-30710000D03*
X134340000Y-28170000D03*
D15*
X148012500Y-29768300D03*
X146512500Y-29768300D03*
X148012500Y-24768300D03*
X146512500Y-24768300D03*
D10*
X154610000Y-35790000D03*
X141160000Y-38330000D03*
D15*
X167012500Y-29768300D03*
X165512500Y-29768300D03*
X167012500Y-24768300D03*
X165512500Y-24768300D03*
D10*
X173610000Y-35790000D03*
X160160000Y-38330000D03*
D15*
X184487500Y-36731700D03*
X185987500Y-36731700D03*
X184487500Y-41731700D03*
X185987500Y-41731700D03*
D10*
X177890000Y-30710000D03*
X191340000Y-28170000D03*
D15*
X203487500Y-36731700D03*
X204987500Y-36731700D03*
X203487500Y-41731700D03*
X204987500Y-41731700D03*
D10*
X196890000Y-30710000D03*
X210340000Y-28170000D03*
D15*
X222487500Y-36731700D03*
X223987500Y-36731700D03*
X222487500Y-41731700D03*
X223987500Y-41731700D03*
D10*
X215890000Y-30710000D03*
X229340000Y-28170000D03*
D15*
X241487500Y-36731700D03*
X242987500Y-36731700D03*
X241487500Y-41731700D03*
X242987500Y-41731700D03*
D10*
X234890000Y-30710000D03*
X248340000Y-28170000D03*
D15*
X260487500Y-36731700D03*
X261987500Y-36731700D03*
X260487500Y-41731700D03*
X261987500Y-41731700D03*
D10*
X253890000Y-30710000D03*
X267340000Y-28170000D03*
D15*
X56237500Y-55731700D03*
X57737500Y-55731700D03*
X56237500Y-60731700D03*
X57737500Y-60731700D03*
D10*
X49640000Y-49710000D03*
X63090000Y-47170000D03*
D15*
X75237500Y-55731700D03*
X76737500Y-55731700D03*
X75237500Y-60731700D03*
X76737500Y-60731700D03*
D10*
X68640000Y-49710000D03*
X82090000Y-47170000D03*
D15*
X94237500Y-55731700D03*
X95737500Y-55731700D03*
X94237500Y-60731700D03*
X95737500Y-60731700D03*
D10*
X87640000Y-49710000D03*
X101090000Y-47170000D03*
D15*
X113237500Y-55731700D03*
X114737500Y-55731700D03*
X113237500Y-60731700D03*
X114737500Y-60731700D03*
D10*
X106640000Y-49710000D03*
X120090000Y-47170000D03*
D15*
X132237500Y-55731700D03*
X133737500Y-55731700D03*
X132237500Y-60731700D03*
X133737500Y-60731700D03*
D10*
X125640000Y-49710000D03*
X139090000Y-47170000D03*
D15*
X151237500Y-55731700D03*
X152737500Y-55731700D03*
X151237500Y-60731700D03*
X152737500Y-60731700D03*
D10*
X144640000Y-49710000D03*
X158090000Y-47170000D03*
D15*
X170237500Y-55731700D03*
X171737500Y-55731700D03*
X170237500Y-60731700D03*
X171737500Y-60731700D03*
D10*
X163640000Y-49710000D03*
X177090000Y-47170000D03*
D15*
X189237500Y-55731700D03*
X190737500Y-55731700D03*
X189237500Y-60731700D03*
X190737500Y-60731700D03*
D10*
X182640000Y-49710000D03*
X196090000Y-47170000D03*
D15*
X208237500Y-55731700D03*
X209737500Y-55731700D03*
X208237500Y-60731700D03*
X209737500Y-60731700D03*
D10*
X201640000Y-49710000D03*
X215090000Y-47170000D03*
D15*
X227237500Y-55731700D03*
X228737500Y-55731700D03*
X227237500Y-60731700D03*
X228737500Y-60731700D03*
D10*
X220640000Y-49710000D03*
X234090000Y-47170000D03*
D15*
X65737500Y-74731700D03*
X67237500Y-74731700D03*
X65737500Y-79731700D03*
X67237500Y-79731700D03*
D10*
X59140000Y-68710000D03*
X72590000Y-66170000D03*
D15*
X84737500Y-74731700D03*
X86237500Y-74731700D03*
X84737500Y-79731700D03*
X86237500Y-79731700D03*
D10*
X78140000Y-68710000D03*
X91590000Y-66170000D03*
D15*
X103737500Y-74731700D03*
X105237500Y-74731700D03*
X103737500Y-79731700D03*
X105237500Y-79731700D03*
D10*
X97140000Y-68710000D03*
X110590000Y-66170000D03*
D15*
X122737500Y-74731700D03*
X124237500Y-74731700D03*
X122737500Y-79731700D03*
X124237500Y-79731700D03*
D10*
X116140000Y-68710000D03*
X129590000Y-66170000D03*
D15*
X141737500Y-74731700D03*
X143237500Y-74731700D03*
X141737500Y-79731700D03*
X143237500Y-79731700D03*
D10*
X135140000Y-68710000D03*
X148590000Y-66170000D03*
D15*
X160737500Y-74731700D03*
X162237500Y-74731700D03*
X160737500Y-79731700D03*
X162237500Y-79731700D03*
D10*
X154140000Y-68710000D03*
X167590000Y-66170000D03*
D15*
X179737500Y-74731700D03*
X181237500Y-74731700D03*
X179737500Y-79731700D03*
X181237500Y-79731700D03*
D10*
X173140000Y-68710000D03*
X186590000Y-66170000D03*
D15*
X198737500Y-74731700D03*
X200237500Y-74731700D03*
X198737500Y-79731700D03*
X200237500Y-79731700D03*
D10*
X192140000Y-68710000D03*
X205590000Y-66170000D03*
D15*
X217737500Y-74731700D03*
X219237500Y-74731700D03*
X217737500Y-79731700D03*
X219237500Y-79731700D03*
D10*
X211140000Y-68710000D03*
X224590000Y-66170000D03*
D15*
X34862500Y-55731700D03*
X36362500Y-55731700D03*
X34862500Y-60731700D03*
X36362500Y-60731700D03*
D10*
X28265000Y-49710000D03*
X41715000Y-47170000D03*
D15*
X258112500Y-74731700D03*
X259612500Y-74731700D03*
X258112500Y-79731700D03*
X259612500Y-79731700D03*
D10*
X251515000Y-68710000D03*
X264965000Y-66170000D03*
D15*
X77612500Y-93731700D03*
X79112500Y-93731700D03*
X77612500Y-98731700D03*
X79112500Y-98731700D03*
D10*
X71015000Y-87710000D03*
X84465000Y-85170000D03*
D15*
X84737500Y-93731700D03*
X86237500Y-93731700D03*
X84737500Y-98731700D03*
X86237500Y-98731700D03*
D10*
X78140000Y-87710000D03*
X91590000Y-85170000D03*
D15*
X101362500Y-93731700D03*
X102862500Y-93731700D03*
X101362500Y-98731700D03*
X102862500Y-98731700D03*
D10*
X94765000Y-87710000D03*
X108215000Y-85170000D03*
D15*
X120362500Y-93731700D03*
X121862500Y-93731700D03*
X120362500Y-98731700D03*
X121862500Y-98731700D03*
D10*
X113765000Y-87710000D03*
X127215000Y-85170000D03*
D15*
X129862500Y-93731700D03*
X131362500Y-93731700D03*
X129862500Y-98731700D03*
X131362500Y-98731700D03*
D10*
X123265000Y-87710000D03*
X136715000Y-85170000D03*
D15*
X191612500Y-93731700D03*
X193112500Y-93731700D03*
X191612500Y-98731700D03*
X193112500Y-98731700D03*
D10*
X185015000Y-87710000D03*
X198465000Y-85170000D03*
D15*
X236737500Y-74731700D03*
X238237500Y-74731700D03*
X236737500Y-79731700D03*
X238237500Y-79731700D03*
D10*
X230140000Y-68710000D03*
X243590000Y-66170000D03*
D15*
X215362500Y-93731700D03*
X216862500Y-93731700D03*
X215362500Y-98731700D03*
X216862500Y-98731700D03*
D10*
X208765000Y-87710000D03*
X222215000Y-85170000D03*
D15*
X208237500Y-93731700D03*
X209737500Y-93731700D03*
X208237500Y-98731700D03*
X209737500Y-98731700D03*
D10*
X201640000Y-87710000D03*
X215090000Y-85170000D03*
D16*
X158988000Y-29276000D03*
X156988000Y-29276000D03*
X158988000Y-31176000D03*
D17*
X156988000Y-30976000D03*
D18*
X156500000Y-26007500D03*
X157000000Y-26007500D03*
X157500000Y-26007500D03*
X156000000Y-26007500D03*
X158000000Y-26007500D03*
X155500000Y-26007500D03*
X158500000Y-26007500D03*
X155000000Y-26007500D03*
D19*
X154300000Y-26007500D03*
X159200000Y-26007500D03*
X153525000Y-26007500D03*
X159975000Y-26007500D03*
D20*
X231292400Y-42054000D03*
X237492400Y-38354000D03*
X231292400Y-38354000D03*
X237492400Y-42054000D03*
M02*
