M48
; DRILL file {KiCad (5.99.0-2043-g129c16cf7)} date 07/05/20 22:32:55
; FORMAT={-:-/ absolute / metric / decimal}
; #@! TF.CreationDate,2020-07-05T22:32:55+02:00
; #@! TF.GenerationSoftware,Kicad,Pcbnew,(5.99.0-2043-g129c16cf7)
; #@! TF.FileFunction,NonPlated,1,2,NPTH
FMAT,2
METRIC
T1C0.650
T2C1.702
T3C2.000
T4C3.000
T5C3.048
T6C3.429
T7C4.000
%
G90
G05
T1
X153.86Y-24.062
X159.64Y-24.062
T2
X198.75Y-33.25
X209.75Y-33.25
X65.75Y-33.25
X76.75Y-33.25
X51.5Y-90.25
X62.5Y-90.25
X217.75Y-33.25
X228.75Y-33.25
X118.0Y-71.25
X129.0Y-71.25
X232.0Y-90.25
X243.0Y-90.25
X213.0Y-71.25
X224.0Y-71.25
X84.75Y-33.25
X95.75Y-33.25
X151.275Y-90.25
X162.275Y-90.25
X62.5Y-52.25
X141.75Y-33.25
X152.75Y-33.25
X46.75Y-33.25
X99.0Y-71.25
X110.0Y-71.25
X163.125Y-90.25
X174.125Y-90.25
X51.5Y-52.25
X57.75Y-33.25
X70.5Y-52.25
X81.5Y-52.25
X34.875Y-71.25
X45.875Y-71.25
X210.625Y-90.25
X179.75Y-33.25
X190.75Y-33.25
X236.75Y-33.25
X232.0Y-71.25
X30.125Y-90.25
X41.125Y-90.25
X127.5Y-52.25
X100.5Y-52.25
X221.625Y-90.25
X138.5Y-52.25
X30.125Y-52.25
X41.125Y-52.25
X175.0Y-71.25
X186.0Y-71.25
X253.375Y-71.25
X264.375Y-71.25
X158.375Y-90.25
X156.0Y-71.25
X167.0Y-71.25
X115.625Y-90.25
X126.625Y-90.25
X56.25Y-90.25
X67.25Y-90.25
X243.0Y-71.25
X160.75Y-33.25
X171.75Y-33.25
X227.25Y-90.25
X238.25Y-90.25
X89.5Y-52.25
X247.75Y-33.25
X27.75Y-33.25
X38.75Y-33.25
X91.0Y-71.25
X222.5Y-52.25
X233.5Y-52.25
X165.5Y-52.25
X176.5Y-52.25
X146.5Y-52.25
X157.5Y-52.25
X61.0Y-71.25
X72.0Y-71.25
X32.5Y-90.25
X80.0Y-71.25
X72.875Y-90.25
X83.875Y-90.25
X251.0Y-90.25
X262.0Y-90.25
X91.0Y-90.25
X203.5Y-90.25
X194.0Y-71.25
X205.0Y-71.25
X214.5Y-90.25
X122.75Y-33.25
X133.75Y-33.25
X96.625Y-90.25
X107.625Y-90.25
X80.0Y-90.25
X137.0Y-71.25
X148.0Y-71.25
X203.5Y-52.25
X214.5Y-52.25
X108.5Y-52.25
X119.5Y-52.25
X43.5Y-90.25
X248.625Y-52.25
X259.625Y-52.25
X103.75Y-33.25
X114.75Y-33.25
X125.125Y-90.25
X136.125Y-90.25
X184.5Y-52.25
X195.5Y-52.25
X255.75Y-33.25
X266.75Y-33.25
X186.875Y-90.25
X197.875Y-90.25
X253.375Y-90.25
X264.375Y-90.25
X169.375Y-90.25
T3
X203.92Y-52.25
X118.42Y-71.25
X203.92Y-90.25
X128.58Y-71.25
X214.08Y-90.25
X76.33Y-33.25
X137.42Y-71.25
X147.58Y-71.25
X66.17Y-33.25
X232.42Y-90.25
X242.58Y-90.25
X214.08Y-52.25
X213.42Y-71.25
X108.92Y-52.25
X119.08Y-52.25
X133.33Y-33.25
X249.045Y-52.25
X114.33Y-33.25
X256.17Y-33.25
X266.33Y-33.25
X127.92Y-52.25
X218.17Y-33.25
X228.33Y-33.25
X263.955Y-90.25
X223.58Y-71.25
X151.695Y-90.25
X123.17Y-33.25
X138.08Y-52.25
X161.855Y-90.25
X163.545Y-90.25
X81.08Y-52.25
X97.045Y-90.25
X104.17Y-33.25
X51.92Y-52.25
X99.42Y-71.25
X40.705Y-52.25
X62.08Y-52.25
X109.58Y-71.25
X173.705Y-90.25
X70.92Y-52.25
X107.205Y-90.25
X259.205Y-52.25
X30.545Y-52.25
X232.42Y-71.25
X242.58Y-71.25
X35.295Y-71.25
X45.455Y-71.25
X30.545Y-90.25
X40.705Y-90.25
X89.92Y-52.25
X100.08Y-52.25
X211.045Y-90.25
X221.205Y-90.25
X73.295Y-90.25
X83.455Y-90.25
X253.795Y-90.25
X251.42Y-90.25
X261.58Y-90.25
X222.92Y-52.25
X233.08Y-52.25
X71.58Y-71.25
X175.42Y-71.25
X227.67Y-90.25
X237.83Y-90.25
X165.92Y-52.25
X176.08Y-52.25
X185.58Y-71.25
X204.58Y-71.25
X156.42Y-71.25
X146.92Y-52.25
X247.33Y-33.25
X161.17Y-33.25
X171.33Y-33.25
X43.08Y-90.25
X80.42Y-71.25
X194.42Y-71.25
X253.795Y-71.25
X263.955Y-71.25
X158.795Y-90.25
X168.955Y-90.25
X166.58Y-71.25
X180.17Y-33.25
X190.33Y-33.25
X56.67Y-90.25
X237.17Y-33.25
X90.58Y-71.25
X80.42Y-90.25
X90.58Y-90.25
X157.08Y-52.25
X116.045Y-90.25
X126.205Y-90.25
X66.83Y-90.25
X125.545Y-90.25
X28.17Y-33.25
X61.42Y-71.25
X32.92Y-90.25
X135.705Y-90.25
X197.455Y-90.25
X38.33Y-33.25
X184.92Y-52.25
X195.08Y-52.25
X187.295Y-90.25
X199.17Y-33.25
X209.33Y-33.25
X51.92Y-90.25
X62.08Y-90.25
X85.17Y-33.25
X95.33Y-33.25
X142.17Y-33.25
X152.33Y-33.25
X47.17Y-33.25
X57.33Y-33.25
T4
X148.19Y-49.71
X154.54Y-47.17
X104.665Y-85.17
X41.81Y-92.79
X98.315Y-87.71
X35.46Y-95.33
X105.44Y-30.71
X212.315Y-87.71
X218.665Y-85.17
X129.19Y-49.71
X135.54Y-47.17
X219.44Y-30.71
X225.79Y-28.17
X161.335Y-95.33
X167.685Y-92.79
X181.44Y-30.71
X224.19Y-49.71
X230.54Y-47.17
X167.19Y-49.71
X173.54Y-47.17
X126.815Y-87.71
X133.165Y-85.17
X187.79Y-28.17
X123.665Y-85.17
X91.19Y-49.71
X97.54Y-47.17
X74.565Y-87.71
X80.915Y-85.17
X253.96Y-95.33
X202.04Y-66.17
X62.69Y-68.71
X69.04Y-66.17
X205.19Y-49.71
X195.69Y-68.71
X81.69Y-87.71
X88.04Y-85.17
X238.44Y-30.71
X260.31Y-92.79
X117.315Y-87.71
X244.79Y-28.17
X163.71Y-38.33
X170.06Y-35.79
X81.69Y-68.71
X88.04Y-66.17
X138.69Y-68.71
X145.04Y-66.17
X211.54Y-47.17
X164.815Y-87.71
X171.165Y-85.17
X186.19Y-49.71
X192.54Y-47.17
X200.44Y-30.71
X126.04Y-66.17
X256.665Y-47.17
X206.79Y-28.17
X31.815Y-49.71
X38.165Y-47.17
X29.44Y-30.71
X35.79Y-28.17
X54.46Y-95.33
X205.19Y-87.71
X257.44Y-30.71
X263.79Y-28.17
X36.565Y-68.71
X42.915Y-66.17
X64.29Y-85.17
X67.44Y-30.71
X211.54Y-85.17
X73.79Y-28.17
X60.81Y-92.79
X119.69Y-68.71
X234.96Y-95.33
X188.565Y-87.71
X194.915Y-85.17
X110.19Y-49.71
X183.04Y-66.17
X92.79Y-28.17
X53.19Y-49.71
X116.54Y-47.17
X124.44Y-30.71
X255.065Y-87.71
X221.04Y-66.17
X59.54Y-47.17
X130.79Y-28.17
X250.315Y-49.71
X111.79Y-28.17
X261.415Y-85.17
X176.69Y-68.71
X214.69Y-68.71
X86.44Y-30.71
X152.965Y-87.71
X159.315Y-85.17
X144.71Y-38.33
X151.06Y-35.79
X54.79Y-28.17
X255.065Y-68.71
X261.415Y-66.17
X157.69Y-68.71
X164.04Y-66.17
X48.44Y-30.71
X100.69Y-68.71
X107.04Y-66.17
X72.19Y-49.71
X78.54Y-47.17
X57.94Y-87.71
X233.69Y-68.71
X240.04Y-66.17
X31.815Y-87.71
X38.165Y-85.17
X228.94Y-87.71
X235.29Y-85.17
X241.31Y-92.79
T5
X99.625Y-97.235
X194.875Y-97.235
T6
X40.375Y-71.25
X216.125Y-90.25
X180.5Y-71.25
X228.0Y-52.25
X258.875Y-90.25
X171.0Y-52.25
X199.5Y-71.25
X161.5Y-71.25
X185.25Y-33.25
X61.75Y-90.25
X85.5Y-90.25
X242.25Y-33.25
X166.25Y-33.25
X152.0Y-52.25
X66.5Y-71.25
X38.0Y-90.25
X130.625Y-90.25
X85.5Y-71.25
X71.25Y-33.25
X209.0Y-90.25
X168.625Y-90.25
X204.25Y-33.25
X102.125Y-90.25
X190.0Y-52.25
X192.375Y-90.25
X57.0Y-90.25
X142.5Y-71.25
X209.0Y-52.25
X123.5Y-71.25
X35.625Y-90.25
X237.5Y-90.25
X114.0Y-52.25
X109.25Y-33.25
X147.25Y-33.25
X128.25Y-33.25
X254.125Y-52.25
X261.25Y-33.25
X104.5Y-71.25
X237.5Y-71.25
X95.0Y-52.25
X133.0Y-52.25
X90.25Y-33.25
X76.0Y-52.25
X35.625Y-52.25
X57.0Y-52.25
X223.25Y-33.25
X218.5Y-71.25
X78.375Y-90.25
X256.5Y-90.25
X163.875Y-90.25
X52.25Y-33.25
X258.875Y-71.25
X121.125Y-90.25
X33.25Y-33.25
T7
X171.0Y-52.25
X121.125Y-90.25
X95.0Y-52.25
X78.375Y-90.25
X256.5Y-90.25
X228.0Y-52.25
X180.5Y-71.25
X258.875Y-71.25
X161.5Y-71.25
X130.625Y-90.25
X209.0Y-90.25
X152.0Y-52.25
X61.75Y-90.25
X33.25Y-33.25
X237.5Y-90.25
X199.5Y-71.25
X114.0Y-52.25
X133.0Y-52.25
X35.625Y-52.25
X85.5Y-90.25
X258.875Y-90.25
X66.5Y-71.25
X38.0Y-90.25
X190.0Y-52.25
X128.25Y-33.25
X194.875Y-81.995
X35.625Y-90.25
X242.25Y-33.25
X166.25Y-33.25
X85.5Y-71.25
X142.5Y-71.25
X209.0Y-52.25
X57.0Y-90.25
X218.5Y-71.25
X99.625Y-81.995
X52.25Y-33.25
X237.5Y-71.25
X102.125Y-90.25
X204.25Y-33.25
X156.775Y-90.25
X168.625Y-90.25
X254.125Y-52.25
X71.25Y-33.25
X261.25Y-33.25
X192.375Y-90.25
X232.75Y-90.25
X216.125Y-90.25
X123.5Y-71.25
X57.0Y-52.25
X40.375Y-71.25
X104.5Y-71.25
X76.0Y-52.25
X223.25Y-33.25
X163.875Y-90.25
X90.25Y-33.25
X147.25Y-33.25
X109.25Y-33.25
X185.25Y-33.25
T0
M30
