G04 #@! TF.GenerationSoftware,KiCad,Pcbnew,(5.99.0-2043-g129c16cf7)*
G04 #@! TF.CreationDate,2020-07-05T22:33:03+02:00*
G04 #@! TF.ProjectId,CC45,43433435-2e6b-4696-9361-645f70636258,rev?*
G04 #@! TF.SameCoordinates,Original*
G04 #@! TF.FileFunction,Profile,NP*
%FSLAX46Y46*%
G04 Gerber Fmt 4.6, Leading zero omitted, Abs format (unit mm)*
G04 Created by KiCad (PCBNEW (5.99.0-2043-g129c16cf7)) date 2020-07-05 22:33:03*
%MOMM*%
%LPD*%
G01*
G04 APERTURE LIST*
G04 #@! TA.AperFunction,Profile*
%ADD10C,0.150000*%
G04 #@! TD*
G04 #@! TA.AperFunction,Profile*
%ADD11C,0.120000*%
G04 #@! TD*
G04 APERTURE END LIST*
D10*
X162093750Y-19000000D02*
X162093750Y-23156250D01*
X151406250Y-19000000D02*
X162093750Y-19000000D01*
X151406250Y-23156250D02*
X151406250Y-19000000D01*
X151406250Y-23156250D02*
G75*
G02*
X150812500Y-23750000I-593750J0D01*
G01*
X162687500Y-23750000D02*
G75*
G02*
X162093750Y-23156250I0J593750D01*
G01*
X150812500Y-23750000D02*
X24937500Y-23750000D01*
X23750000Y-24937500D02*
X23750000Y-98562500D01*
X269562500Y-23750000D02*
X162687500Y-23750000D01*
X269562500Y-99750000D02*
X24937500Y-99750000D01*
X270750000Y-24937500D02*
X270750000Y-98562500D01*
X269562500Y-23750000D02*
G75*
G02*
X270750000Y-24937500I0J-1187500D01*
G01*
X270750000Y-98562500D02*
G75*
G02*
X269562500Y-99750000I-1187500J0D01*
G01*
X24937500Y-99750000D02*
G75*
G02*
X23750000Y-98562500I0J1187500D01*
G01*
X23750000Y-24937500D02*
G75*
G02*
X24937500Y-23750000I1187500J0D01*
G01*
D11*
X169120674Y-85123071D02*
X166683696Y-86829461D01*
X166683696Y-86829461D02*
X164736405Y-84048440D01*
X164736405Y-84048440D02*
X167173381Y-82342050D01*
X169120674Y-85123071D02*
X167173381Y-82342050D01*
X167277800Y-98068200D02*
X167277800Y-95093200D01*
X167277800Y-95093200D02*
X170672800Y-95093200D01*
X170672800Y-95093200D02*
X170672800Y-98068200D01*
X167277800Y-98068200D02*
X170672800Y-98068200D01*
X258659687Y-84143284D02*
X256556044Y-86246926D01*
X256556044Y-86246926D02*
X254155417Y-83846299D01*
X254155417Y-83846299D02*
X256259059Y-81742656D01*
X258659687Y-84143284D02*
X256259059Y-81742656D01*
X236459500Y-86564900D02*
X233484500Y-86564900D01*
X233484500Y-86564900D02*
X233484500Y-83169900D01*
X233484500Y-83169900D02*
X236459500Y-83169900D01*
X236459500Y-86564900D02*
X236459500Y-83169900D01*
X153268900Y-94290700D02*
X156243900Y-94290700D01*
X156243900Y-94290700D02*
X156243900Y-97685700D01*
X156243900Y-97685700D02*
X153268900Y-97685700D01*
X153268900Y-94290700D02*
X153268900Y-97685700D01*
X233817300Y-93833500D02*
X236792300Y-93833500D01*
X236792300Y-93833500D02*
X236792300Y-97228500D01*
X236792300Y-97228500D02*
X233817300Y-97228500D01*
X233817300Y-93833500D02*
X233817300Y-97228500D01*
X261797227Y-96566304D02*
X259693584Y-98669946D01*
X259693584Y-98669946D02*
X257292957Y-96269319D01*
X257292957Y-96269319D02*
X259396599Y-94165676D01*
X261797227Y-96566304D02*
X259396599Y-94165676D01*
X58347200Y-82431800D02*
X58347200Y-85406800D01*
X58347200Y-85406800D02*
X54952200Y-85406800D01*
X54952200Y-85406800D02*
X54952200Y-82431800D01*
X58347200Y-82431800D02*
X54952200Y-82431800D01*
X37312606Y-86812979D02*
X35033624Y-84900686D01*
X35033624Y-84900686D02*
X37215889Y-82299965D01*
X37215889Y-82299965D02*
X39494870Y-84212258D01*
X37312606Y-86812979D02*
X39494870Y-84212258D01*
X63722200Y-94395200D02*
X63722200Y-97370200D01*
X63722200Y-97370200D02*
X60327200Y-97370200D01*
X60327200Y-97370200D02*
X60327200Y-94395200D01*
X63722200Y-94395200D02*
X60327200Y-94395200D01*
X36428897Y-93918660D02*
X38532539Y-96022303D01*
X38532539Y-96022303D02*
X36131912Y-98422930D01*
X36131912Y-98422930D02*
X34028269Y-96319288D01*
X36428897Y-93918660D02*
X34028269Y-96319288D01*
X252601000Y-56572000D02*
X255576000Y-56572000D01*
X255576000Y-56572000D02*
X255576000Y-59967000D01*
X255576000Y-59967000D02*
X252601000Y-59967000D01*
X252601000Y-56572000D02*
X252601000Y-59967000D01*
X38851000Y-75572000D02*
X41826000Y-75572000D01*
X41826000Y-75572000D02*
X41826000Y-78967000D01*
X41826000Y-78967000D02*
X38851000Y-78967000D01*
X38851000Y-75572000D02*
X38851000Y-78967000D01*
X31726000Y-37572000D02*
X34701000Y-37572000D01*
X34701000Y-37572000D02*
X34701000Y-40967000D01*
X34701000Y-40967000D02*
X31726000Y-40967000D01*
X31726000Y-37572000D02*
X31726000Y-40967000D01*
X50726000Y-37572000D02*
X53701000Y-37572000D01*
X53701000Y-37572000D02*
X53701000Y-40967000D01*
X53701000Y-40967000D02*
X50726000Y-40967000D01*
X50726000Y-37572000D02*
X50726000Y-40967000D01*
X69726000Y-37572000D02*
X72701000Y-37572000D01*
X72701000Y-37572000D02*
X72701000Y-40967000D01*
X72701000Y-40967000D02*
X69726000Y-40967000D01*
X69726000Y-37572000D02*
X69726000Y-40967000D01*
X88726000Y-37572000D02*
X91701000Y-37572000D01*
X91701000Y-37572000D02*
X91701000Y-40967000D01*
X91701000Y-40967000D02*
X88726000Y-40967000D01*
X88726000Y-37572000D02*
X88726000Y-40967000D01*
X107726000Y-37572000D02*
X110701000Y-37572000D01*
X110701000Y-37572000D02*
X110701000Y-40967000D01*
X110701000Y-40967000D02*
X107726000Y-40967000D01*
X107726000Y-37572000D02*
X107726000Y-40967000D01*
X126726000Y-37572000D02*
X129701000Y-37572000D01*
X129701000Y-37572000D02*
X129701000Y-40967000D01*
X129701000Y-40967000D02*
X126726000Y-40967000D01*
X126726000Y-37572000D02*
X126726000Y-40967000D01*
X148774000Y-28928000D02*
X145799000Y-28928000D01*
X145799000Y-28928000D02*
X145799000Y-25533000D01*
X145799000Y-25533000D02*
X148774000Y-25533000D01*
X148774000Y-28928000D02*
X148774000Y-25533000D01*
X167774000Y-28928000D02*
X164799000Y-28928000D01*
X164799000Y-28928000D02*
X164799000Y-25533000D01*
X164799000Y-25533000D02*
X167774000Y-25533000D01*
X167774000Y-28928000D02*
X167774000Y-25533000D01*
X183726000Y-37572000D02*
X186701000Y-37572000D01*
X186701000Y-37572000D02*
X186701000Y-40967000D01*
X186701000Y-40967000D02*
X183726000Y-40967000D01*
X183726000Y-37572000D02*
X183726000Y-40967000D01*
X202726000Y-37572000D02*
X205701000Y-37572000D01*
X205701000Y-37572000D02*
X205701000Y-40967000D01*
X205701000Y-40967000D02*
X202726000Y-40967000D01*
X202726000Y-37572000D02*
X202726000Y-40967000D01*
X221726000Y-37572000D02*
X224701000Y-37572000D01*
X224701000Y-37572000D02*
X224701000Y-40967000D01*
X224701000Y-40967000D02*
X221726000Y-40967000D01*
X221726000Y-37572000D02*
X221726000Y-40967000D01*
X240726000Y-37572000D02*
X243701000Y-37572000D01*
X243701000Y-37572000D02*
X243701000Y-40967000D01*
X243701000Y-40967000D02*
X240726000Y-40967000D01*
X240726000Y-37572000D02*
X240726000Y-40967000D01*
X259726000Y-37572000D02*
X262701000Y-37572000D01*
X262701000Y-37572000D02*
X262701000Y-40967000D01*
X262701000Y-40967000D02*
X259726000Y-40967000D01*
X259726000Y-37572000D02*
X259726000Y-40967000D01*
X55476000Y-56572000D02*
X58451000Y-56572000D01*
X58451000Y-56572000D02*
X58451000Y-59967000D01*
X58451000Y-59967000D02*
X55476000Y-59967000D01*
X55476000Y-56572000D02*
X55476000Y-59967000D01*
X74476000Y-56572000D02*
X77451000Y-56572000D01*
X77451000Y-56572000D02*
X77451000Y-59967000D01*
X77451000Y-59967000D02*
X74476000Y-59967000D01*
X74476000Y-56572000D02*
X74476000Y-59967000D01*
X93476000Y-56572000D02*
X96451000Y-56572000D01*
X96451000Y-56572000D02*
X96451000Y-59967000D01*
X96451000Y-59967000D02*
X93476000Y-59967000D01*
X93476000Y-56572000D02*
X93476000Y-59967000D01*
X112476000Y-56572000D02*
X115451000Y-56572000D01*
X115451000Y-56572000D02*
X115451000Y-59967000D01*
X115451000Y-59967000D02*
X112476000Y-59967000D01*
X112476000Y-56572000D02*
X112476000Y-59967000D01*
X131476000Y-56572000D02*
X134451000Y-56572000D01*
X134451000Y-56572000D02*
X134451000Y-59967000D01*
X134451000Y-59967000D02*
X131476000Y-59967000D01*
X131476000Y-56572000D02*
X131476000Y-59967000D01*
X150476000Y-56572000D02*
X153451000Y-56572000D01*
X153451000Y-56572000D02*
X153451000Y-59967000D01*
X153451000Y-59967000D02*
X150476000Y-59967000D01*
X150476000Y-56572000D02*
X150476000Y-59967000D01*
X169476000Y-56572000D02*
X172451000Y-56572000D01*
X172451000Y-56572000D02*
X172451000Y-59967000D01*
X172451000Y-59967000D02*
X169476000Y-59967000D01*
X169476000Y-56572000D02*
X169476000Y-59967000D01*
X188476000Y-56572000D02*
X191451000Y-56572000D01*
X191451000Y-56572000D02*
X191451000Y-59967000D01*
X191451000Y-59967000D02*
X188476000Y-59967000D01*
X188476000Y-56572000D02*
X188476000Y-59967000D01*
X207476000Y-56572000D02*
X210451000Y-56572000D01*
X210451000Y-56572000D02*
X210451000Y-59967000D01*
X210451000Y-59967000D02*
X207476000Y-59967000D01*
X207476000Y-56572000D02*
X207476000Y-59967000D01*
X226476000Y-56572000D02*
X229451000Y-56572000D01*
X229451000Y-56572000D02*
X229451000Y-59967000D01*
X229451000Y-59967000D02*
X226476000Y-59967000D01*
X226476000Y-56572000D02*
X226476000Y-59967000D01*
X64976000Y-75572000D02*
X67951000Y-75572000D01*
X67951000Y-75572000D02*
X67951000Y-78967000D01*
X67951000Y-78967000D02*
X64976000Y-78967000D01*
X64976000Y-75572000D02*
X64976000Y-78967000D01*
X83976000Y-75572000D02*
X86951000Y-75572000D01*
X86951000Y-75572000D02*
X86951000Y-78967000D01*
X86951000Y-78967000D02*
X83976000Y-78967000D01*
X83976000Y-75572000D02*
X83976000Y-78967000D01*
X102976000Y-75572000D02*
X105951000Y-75572000D01*
X105951000Y-75572000D02*
X105951000Y-78967000D01*
X105951000Y-78967000D02*
X102976000Y-78967000D01*
X102976000Y-75572000D02*
X102976000Y-78967000D01*
X121976000Y-75572000D02*
X124951000Y-75572000D01*
X124951000Y-75572000D02*
X124951000Y-78967000D01*
X124951000Y-78967000D02*
X121976000Y-78967000D01*
X121976000Y-75572000D02*
X121976000Y-78967000D01*
X140976000Y-75572000D02*
X143951000Y-75572000D01*
X143951000Y-75572000D02*
X143951000Y-78967000D01*
X143951000Y-78967000D02*
X140976000Y-78967000D01*
X140976000Y-75572000D02*
X140976000Y-78967000D01*
X159976000Y-75572000D02*
X162951000Y-75572000D01*
X162951000Y-75572000D02*
X162951000Y-78967000D01*
X162951000Y-78967000D02*
X159976000Y-78967000D01*
X159976000Y-75572000D02*
X159976000Y-78967000D01*
X178976000Y-75572000D02*
X181951000Y-75572000D01*
X181951000Y-75572000D02*
X181951000Y-78967000D01*
X181951000Y-78967000D02*
X178976000Y-78967000D01*
X178976000Y-75572000D02*
X178976000Y-78967000D01*
X197976000Y-75572000D02*
X200951000Y-75572000D01*
X200951000Y-75572000D02*
X200951000Y-78967000D01*
X200951000Y-78967000D02*
X197976000Y-78967000D01*
X197976000Y-75572000D02*
X197976000Y-78967000D01*
X216976000Y-75572000D02*
X219951000Y-75572000D01*
X219951000Y-75572000D02*
X219951000Y-78967000D01*
X219951000Y-78967000D02*
X216976000Y-78967000D01*
X216976000Y-75572000D02*
X216976000Y-78967000D01*
X34101000Y-56572000D02*
X37076000Y-56572000D01*
X37076000Y-56572000D02*
X37076000Y-59967000D01*
X37076000Y-59967000D02*
X34101000Y-59967000D01*
X34101000Y-56572000D02*
X34101000Y-59967000D01*
X257351000Y-75572000D02*
X260326000Y-75572000D01*
X260326000Y-75572000D02*
X260326000Y-78967000D01*
X260326000Y-78967000D02*
X257351000Y-78967000D01*
X257351000Y-75572000D02*
X257351000Y-78967000D01*
X76851000Y-94572000D02*
X79826000Y-94572000D01*
X79826000Y-94572000D02*
X79826000Y-97967000D01*
X79826000Y-97967000D02*
X76851000Y-97967000D01*
X76851000Y-94572000D02*
X76851000Y-97967000D01*
X83976000Y-94572000D02*
X86951000Y-94572000D01*
X86951000Y-94572000D02*
X86951000Y-97967000D01*
X86951000Y-97967000D02*
X83976000Y-97967000D01*
X83976000Y-94572000D02*
X83976000Y-97967000D01*
X100601000Y-94572000D02*
X103576000Y-94572000D01*
X103576000Y-94572000D02*
X103576000Y-97967000D01*
X103576000Y-97967000D02*
X100601000Y-97967000D01*
X100601000Y-94572000D02*
X100601000Y-97967000D01*
X119601000Y-94572000D02*
X122576000Y-94572000D01*
X122576000Y-94572000D02*
X122576000Y-97967000D01*
X122576000Y-97967000D02*
X119601000Y-97967000D01*
X119601000Y-94572000D02*
X119601000Y-97967000D01*
X129101000Y-94572000D02*
X132076000Y-94572000D01*
X132076000Y-94572000D02*
X132076000Y-97967000D01*
X132076000Y-97967000D02*
X129101000Y-97967000D01*
X129101000Y-94572000D02*
X129101000Y-97967000D01*
X190851000Y-94572000D02*
X193826000Y-94572000D01*
X193826000Y-94572000D02*
X193826000Y-97967000D01*
X193826000Y-97967000D02*
X190851000Y-97967000D01*
X190851000Y-94572000D02*
X190851000Y-97967000D01*
X235976000Y-75572000D02*
X238951000Y-75572000D01*
X238951000Y-75572000D02*
X238951000Y-78967000D01*
X238951000Y-78967000D02*
X235976000Y-78967000D01*
X235976000Y-75572000D02*
X235976000Y-78967000D01*
X214601000Y-94572000D02*
X217576000Y-94572000D01*
X217576000Y-94572000D02*
X217576000Y-97967000D01*
X217576000Y-97967000D02*
X214601000Y-97967000D01*
X214601000Y-94572000D02*
X214601000Y-97967000D01*
X207476000Y-94572000D02*
X210451000Y-94572000D01*
X210451000Y-94572000D02*
X210451000Y-97967000D01*
X210451000Y-97967000D02*
X207476000Y-97967000D01*
X207476000Y-94572000D02*
X207476000Y-97967000D01*
M02*
