G04 #@! TF.GenerationSoftware,KiCad,Pcbnew,(5.99.0-2043-g129c16cf7)*
G04 #@! TF.CreationDate,2020-07-05T22:33:02+02:00*
G04 #@! TF.ProjectId,CC45,43433435-2e6b-4696-9361-645f70636258,rev?*
G04 #@! TF.SameCoordinates,Original*
G04 #@! TF.FileFunction,Soldermask,Top*
G04 #@! TF.FilePolarity,Negative*
%FSLAX46Y46*%
G04 Gerber Fmt 4.6, Leading zero omitted, Abs format (unit mm)*
G04 Created by KiCad (PCBNEW (5.99.0-2043-g129c16cf7)) date 2020-07-05 22:33:02*
%MOMM*%
%LPD*%
G01*
G04 APERTURE LIST*
%ADD10C,0.125000*%
%ADD11C,1.803800*%
%ADD12C,3.531000*%
%ADD13C,2.102000*%
%ADD14C,3.102000*%
%ADD15C,4.102000*%
%ADD16C,3.150000*%
%ADD17O,1.102000X1.702000*%
%ADD18O,1.102000X2.202000*%
%ADD19C,0.752000*%
G04 APERTURE END LIST*
D10*
X139521428Y-79878571D02*
X139497619Y-79902380D01*
X139426190Y-79926190D01*
X139378571Y-79926190D01*
X139307142Y-79902380D01*
X139259523Y-79854761D01*
X139235714Y-79807142D01*
X139211904Y-79711904D01*
X139211904Y-79640476D01*
X139235714Y-79545238D01*
X139259523Y-79497619D01*
X139307142Y-79450000D01*
X139378571Y-79426190D01*
X139426190Y-79426190D01*
X139497619Y-79450000D01*
X139521428Y-79473809D01*
X140021428Y-79878571D02*
X139997619Y-79902380D01*
X139926190Y-79926190D01*
X139878571Y-79926190D01*
X139807142Y-79902380D01*
X139759523Y-79854761D01*
X139735714Y-79807142D01*
X139711904Y-79711904D01*
X139711904Y-79640476D01*
X139735714Y-79545238D01*
X139759523Y-79497619D01*
X139807142Y-79450000D01*
X139878571Y-79426190D01*
X139926190Y-79426190D01*
X139997619Y-79450000D01*
X140021428Y-79473809D01*
X140450000Y-79592857D02*
X140450000Y-79926190D01*
X140330952Y-79402380D02*
X140211904Y-79759523D01*
X140521428Y-79759523D01*
X140950000Y-79426190D02*
X140711904Y-79426190D01*
X140688095Y-79664285D01*
X140711904Y-79640476D01*
X140759523Y-79616666D01*
X140878571Y-79616666D01*
X140926190Y-79640476D01*
X140950000Y-79664285D01*
X140973809Y-79711904D01*
X140973809Y-79830952D01*
X140950000Y-79878571D01*
X140926190Y-79902380D01*
X140878571Y-79926190D01*
X140759523Y-79926190D01*
X140711904Y-79902380D01*
X140688095Y-79878571D01*
X141521428Y-79592857D02*
X141640476Y-79926190D01*
X141759523Y-79592857D01*
X142211904Y-79926190D02*
X141926190Y-79926190D01*
X142069047Y-79926190D02*
X142069047Y-79426190D01*
X142021428Y-79497619D01*
X141973809Y-79545238D01*
X141926190Y-79569047D01*
X142426190Y-79878571D02*
X142450000Y-79902380D01*
X142426190Y-79926190D01*
X142402380Y-79902380D01*
X142426190Y-79878571D01*
X142426190Y-79926190D01*
X142759523Y-79426190D02*
X142807142Y-79426190D01*
X142854761Y-79450000D01*
X142878571Y-79473809D01*
X142902380Y-79521428D01*
X142926190Y-79616666D01*
X142926190Y-79735714D01*
X142902380Y-79830952D01*
X142878571Y-79878571D01*
X142854761Y-79902380D01*
X142807142Y-79926190D01*
X142759523Y-79926190D01*
X142711904Y-79902380D01*
X142688095Y-79878571D01*
X142664285Y-79830952D01*
X142640476Y-79735714D01*
X142640476Y-79616666D01*
X142664285Y-79521428D01*
X142688095Y-79473809D01*
X142711904Y-79450000D01*
X142759523Y-79426190D01*
X143521428Y-79926190D02*
X143521428Y-79426190D01*
X143521428Y-79616666D02*
X143569047Y-79592857D01*
X143664285Y-79592857D01*
X143711904Y-79616666D01*
X143735714Y-79640476D01*
X143759523Y-79688095D01*
X143759523Y-79830952D01*
X143735714Y-79878571D01*
X143711904Y-79902380D01*
X143664285Y-79926190D01*
X143569047Y-79926190D01*
X143521428Y-79902380D01*
X143926190Y-79592857D02*
X144045238Y-79926190D01*
X144164285Y-79592857D02*
X144045238Y-79926190D01*
X143997619Y-80045238D01*
X143973809Y-80069047D01*
X143926190Y-80092857D01*
X144735714Y-79926190D02*
X144735714Y-79426190D01*
X144854761Y-79426190D01*
X144926190Y-79450000D01*
X144973809Y-79497619D01*
X144997619Y-79545238D01*
X145021428Y-79640476D01*
X145021428Y-79711904D01*
X144997619Y-79807142D01*
X144973809Y-79854761D01*
X144926190Y-79902380D01*
X144854761Y-79926190D01*
X144735714Y-79926190D01*
X145235714Y-79926190D02*
X145235714Y-79592857D01*
X145235714Y-79688095D02*
X145259523Y-79640476D01*
X145283333Y-79616666D01*
X145330952Y-79592857D01*
X145378571Y-79592857D01*
X145759523Y-79592857D02*
X145759523Y-79926190D01*
X145545238Y-79592857D02*
X145545238Y-79854761D01*
X145569047Y-79902380D01*
X145616666Y-79926190D01*
X145688095Y-79926190D01*
X145735714Y-79902380D01*
X145759523Y-79878571D01*
X145950000Y-79592857D02*
X146211904Y-79592857D01*
X145950000Y-79926190D01*
X146211904Y-79926190D01*
X139521428Y-79878571D02*
X139497619Y-79902380D01*
X139426190Y-79926190D01*
X139378571Y-79926190D01*
X139307142Y-79902380D01*
X139259523Y-79854761D01*
X139235714Y-79807142D01*
X139211904Y-79711904D01*
X139211904Y-79640476D01*
X139235714Y-79545238D01*
X139259523Y-79497619D01*
X139307142Y-79450000D01*
X139378571Y-79426190D01*
X139426190Y-79426190D01*
X139497619Y-79450000D01*
X139521428Y-79473809D01*
X140021428Y-79878571D02*
X139997619Y-79902380D01*
X139926190Y-79926190D01*
X139878571Y-79926190D01*
X139807142Y-79902380D01*
X139759523Y-79854761D01*
X139735714Y-79807142D01*
X139711904Y-79711904D01*
X139711904Y-79640476D01*
X139735714Y-79545238D01*
X139759523Y-79497619D01*
X139807142Y-79450000D01*
X139878571Y-79426190D01*
X139926190Y-79426190D01*
X139997619Y-79450000D01*
X140021428Y-79473809D01*
X140450000Y-79592857D02*
X140450000Y-79926190D01*
X140330952Y-79402380D02*
X140211904Y-79759523D01*
X140521428Y-79759523D01*
X140950000Y-79426190D02*
X140711904Y-79426190D01*
X140688095Y-79664285D01*
X140711904Y-79640476D01*
X140759523Y-79616666D01*
X140878571Y-79616666D01*
X140926190Y-79640476D01*
X140950000Y-79664285D01*
X140973809Y-79711904D01*
X140973809Y-79830952D01*
X140950000Y-79878571D01*
X140926190Y-79902380D01*
X140878571Y-79926190D01*
X140759523Y-79926190D01*
X140711904Y-79902380D01*
X140688095Y-79878571D01*
X141521428Y-79592857D02*
X141640476Y-79926190D01*
X141759523Y-79592857D01*
X142211904Y-79926190D02*
X141926190Y-79926190D01*
X142069047Y-79926190D02*
X142069047Y-79426190D01*
X142021428Y-79497619D01*
X141973809Y-79545238D01*
X141926190Y-79569047D01*
X142426190Y-79878571D02*
X142450000Y-79902380D01*
X142426190Y-79926190D01*
X142402380Y-79902380D01*
X142426190Y-79878571D01*
X142426190Y-79926190D01*
X142759523Y-79426190D02*
X142807142Y-79426190D01*
X142854761Y-79450000D01*
X142878571Y-79473809D01*
X142902380Y-79521428D01*
X142926190Y-79616666D01*
X142926190Y-79735714D01*
X142902380Y-79830952D01*
X142878571Y-79878571D01*
X142854761Y-79902380D01*
X142807142Y-79926190D01*
X142759523Y-79926190D01*
X142711904Y-79902380D01*
X142688095Y-79878571D01*
X142664285Y-79830952D01*
X142640476Y-79735714D01*
X142640476Y-79616666D01*
X142664285Y-79521428D01*
X142688095Y-79473809D01*
X142711904Y-79450000D01*
X142759523Y-79426190D01*
X143521428Y-79926190D02*
X143521428Y-79426190D01*
X143521428Y-79616666D02*
X143569047Y-79592857D01*
X143664285Y-79592857D01*
X143711904Y-79616666D01*
X143735714Y-79640476D01*
X143759523Y-79688095D01*
X143759523Y-79830952D01*
X143735714Y-79878571D01*
X143711904Y-79902380D01*
X143664285Y-79926190D01*
X143569047Y-79926190D01*
X143521428Y-79902380D01*
X143926190Y-79592857D02*
X144045238Y-79926190D01*
X144164285Y-79592857D02*
X144045238Y-79926190D01*
X143997619Y-80045238D01*
X143973809Y-80069047D01*
X143926190Y-80092857D01*
X144735714Y-79926190D02*
X144735714Y-79426190D01*
X144854761Y-79426190D01*
X144926190Y-79450000D01*
X144973809Y-79497619D01*
X144997619Y-79545238D01*
X145021428Y-79640476D01*
X145021428Y-79711904D01*
X144997619Y-79807142D01*
X144973809Y-79854761D01*
X144926190Y-79902380D01*
X144854761Y-79926190D01*
X144735714Y-79926190D01*
X145235714Y-79926190D02*
X145235714Y-79592857D01*
X145235714Y-79688095D02*
X145259523Y-79640476D01*
X145283333Y-79616666D01*
X145330952Y-79592857D01*
X145378571Y-79592857D01*
X145759523Y-79592857D02*
X145759523Y-79926190D01*
X145545238Y-79592857D02*
X145545238Y-79854761D01*
X145569047Y-79902380D01*
X145616666Y-79926190D01*
X145688095Y-79926190D01*
X145735714Y-79902380D01*
X145759523Y-79878571D01*
X145950000Y-79592857D02*
X146211904Y-79592857D01*
X145950000Y-79926190D01*
X146211904Y-79926190D01*
D11*
X158375000Y-90250000D03*
X169375000Y-90250000D03*
D12*
X163875000Y-90250000D03*
D13*
X168955000Y-90250000D03*
D14*
X167685000Y-92790000D03*
D15*
X163875000Y-90250000D03*
D14*
X161335000Y-95330000D03*
D13*
X158795000Y-90250000D03*
D11*
X174125000Y-90250000D03*
X163125000Y-90250000D03*
D12*
X168625000Y-90250000D03*
D13*
X163545000Y-90250000D03*
D14*
X164815000Y-87710000D03*
D15*
X168625000Y-90250000D03*
D14*
X171165000Y-85170000D03*
D13*
X173705000Y-90250000D03*
D11*
X251000000Y-90250000D03*
X262000000Y-90250000D03*
D12*
X256500000Y-90250000D03*
D13*
X261580000Y-90250000D03*
D14*
X260310000Y-92790000D03*
D15*
X256500000Y-90250000D03*
D14*
X253960000Y-95330000D03*
D13*
X251420000Y-90250000D03*
D11*
X232000000Y-90250000D03*
X243000000Y-90250000D03*
D12*
X237500000Y-90250000D03*
D13*
X242580000Y-90250000D03*
D14*
X241310000Y-92790000D03*
D15*
X237500000Y-90250000D03*
D14*
X234960000Y-95330000D03*
D13*
X232420000Y-90250000D03*
D16*
X194875000Y-97235000D03*
D15*
X194875000Y-81995000D03*
D16*
X99625000Y-97235000D03*
D15*
X99625000Y-81995000D03*
D11*
X162275000Y-90250000D03*
X151275000Y-90250000D03*
D13*
X151695000Y-90250000D03*
D14*
X152965000Y-87710000D03*
D15*
X156775000Y-90250000D03*
D14*
X159315000Y-85170000D03*
D13*
X161855000Y-90250000D03*
D11*
X238250000Y-90250000D03*
X227250000Y-90250000D03*
D13*
X227670000Y-90250000D03*
D14*
X228940000Y-87710000D03*
D15*
X232750000Y-90250000D03*
D14*
X235290000Y-85170000D03*
D13*
X237830000Y-90250000D03*
D11*
X264375000Y-90250000D03*
X253375000Y-90250000D03*
D12*
X258875000Y-90250000D03*
D13*
X253795000Y-90250000D03*
D14*
X255065000Y-87710000D03*
D15*
X258875000Y-90250000D03*
D14*
X261415000Y-85170000D03*
D13*
X263955000Y-90250000D03*
D11*
X51500000Y-90250000D03*
X62500000Y-90250000D03*
D12*
X57000000Y-90250000D03*
D13*
X62080000Y-90250000D03*
D14*
X60810000Y-92790000D03*
D15*
X57000000Y-90250000D03*
D14*
X54460000Y-95330000D03*
D13*
X51920000Y-90250000D03*
D11*
X32500000Y-90250000D03*
X43500000Y-90250000D03*
D12*
X38000000Y-90250000D03*
D13*
X43080000Y-90250000D03*
D14*
X41810000Y-92790000D03*
D15*
X38000000Y-90250000D03*
D14*
X35460000Y-95330000D03*
D13*
X32920000Y-90250000D03*
D11*
X67250000Y-90250000D03*
X56250000Y-90250000D03*
D12*
X61750000Y-90250000D03*
D13*
X56670000Y-90250000D03*
D14*
X57940000Y-87710000D03*
D15*
X61750000Y-90250000D03*
D14*
X64290000Y-85170000D03*
D13*
X66830000Y-90250000D03*
D11*
X41125000Y-90250000D03*
X30125000Y-90250000D03*
D12*
X35625000Y-90250000D03*
D13*
X30545000Y-90250000D03*
D14*
X31815000Y-87710000D03*
D15*
X35625000Y-90250000D03*
D14*
X38165000Y-85170000D03*
D13*
X40705000Y-90250000D03*
D11*
X259625000Y-52250000D03*
X248625000Y-52250000D03*
D12*
X254125000Y-52250000D03*
D13*
X249045000Y-52250000D03*
D14*
X250315000Y-49710000D03*
D15*
X254125000Y-52250000D03*
D14*
X256665000Y-47170000D03*
D13*
X259205000Y-52250000D03*
D11*
X45875000Y-71250000D03*
X34875000Y-71250000D03*
D12*
X40375000Y-71250000D03*
D13*
X35295000Y-71250000D03*
D14*
X36565000Y-68710000D03*
D15*
X40375000Y-71250000D03*
D14*
X42915000Y-66170000D03*
D13*
X45455000Y-71250000D03*
D11*
X38750000Y-33250000D03*
X27750000Y-33250000D03*
D12*
X33250000Y-33250000D03*
D13*
X28170000Y-33250000D03*
D14*
X29440000Y-30710000D03*
D15*
X33250000Y-33250000D03*
D14*
X35790000Y-28170000D03*
D13*
X38330000Y-33250000D03*
D11*
X57750000Y-33250000D03*
X46750000Y-33250000D03*
D12*
X52250000Y-33250000D03*
D13*
X47170000Y-33250000D03*
D14*
X48440000Y-30710000D03*
D15*
X52250000Y-33250000D03*
D14*
X54790000Y-28170000D03*
D13*
X57330000Y-33250000D03*
D11*
X76750000Y-33250000D03*
X65750000Y-33250000D03*
D12*
X71250000Y-33250000D03*
D13*
X66170000Y-33250000D03*
D14*
X67440000Y-30710000D03*
D15*
X71250000Y-33250000D03*
D14*
X73790000Y-28170000D03*
D13*
X76330000Y-33250000D03*
D11*
X95750000Y-33250000D03*
X84750000Y-33250000D03*
D12*
X90250000Y-33250000D03*
D13*
X85170000Y-33250000D03*
D14*
X86440000Y-30710000D03*
D15*
X90250000Y-33250000D03*
D14*
X92790000Y-28170000D03*
D13*
X95330000Y-33250000D03*
D11*
X114750000Y-33250000D03*
X103750000Y-33250000D03*
D12*
X109250000Y-33250000D03*
D13*
X104170000Y-33250000D03*
D14*
X105440000Y-30710000D03*
D15*
X109250000Y-33250000D03*
D14*
X111790000Y-28170000D03*
D13*
X114330000Y-33250000D03*
D11*
X133750000Y-33250000D03*
X122750000Y-33250000D03*
D12*
X128250000Y-33250000D03*
D13*
X123170000Y-33250000D03*
D14*
X124440000Y-30710000D03*
D15*
X128250000Y-33250000D03*
D14*
X130790000Y-28170000D03*
D13*
X133330000Y-33250000D03*
D11*
X141750000Y-33250000D03*
X152750000Y-33250000D03*
D12*
X147250000Y-33250000D03*
D13*
X152330000Y-33250000D03*
D14*
X151060000Y-35790000D03*
D15*
X147250000Y-33250000D03*
D14*
X144710000Y-38330000D03*
D13*
X142170000Y-33250000D03*
D11*
X160750000Y-33250000D03*
X171750000Y-33250000D03*
D12*
X166250000Y-33250000D03*
D13*
X171330000Y-33250000D03*
D14*
X170060000Y-35790000D03*
D15*
X166250000Y-33250000D03*
D14*
X163710000Y-38330000D03*
D13*
X161170000Y-33250000D03*
D11*
X190750000Y-33250000D03*
X179750000Y-33250000D03*
D12*
X185250000Y-33250000D03*
D13*
X180170000Y-33250000D03*
D14*
X181440000Y-30710000D03*
D15*
X185250000Y-33250000D03*
D14*
X187790000Y-28170000D03*
D13*
X190330000Y-33250000D03*
D11*
X209750000Y-33250000D03*
X198750000Y-33250000D03*
D12*
X204250000Y-33250000D03*
D13*
X199170000Y-33250000D03*
D14*
X200440000Y-30710000D03*
D15*
X204250000Y-33250000D03*
D14*
X206790000Y-28170000D03*
D13*
X209330000Y-33250000D03*
D11*
X228750000Y-33250000D03*
X217750000Y-33250000D03*
D12*
X223250000Y-33250000D03*
D13*
X218170000Y-33250000D03*
D14*
X219440000Y-30710000D03*
D15*
X223250000Y-33250000D03*
D14*
X225790000Y-28170000D03*
D13*
X228330000Y-33250000D03*
D11*
X247750000Y-33250000D03*
X236750000Y-33250000D03*
D12*
X242250000Y-33250000D03*
D13*
X237170000Y-33250000D03*
D14*
X238440000Y-30710000D03*
D15*
X242250000Y-33250000D03*
D14*
X244790000Y-28170000D03*
D13*
X247330000Y-33250000D03*
D11*
X266750000Y-33250000D03*
X255750000Y-33250000D03*
D12*
X261250000Y-33250000D03*
D13*
X256170000Y-33250000D03*
D14*
X257440000Y-30710000D03*
D15*
X261250000Y-33250000D03*
D14*
X263790000Y-28170000D03*
D13*
X266330000Y-33250000D03*
D11*
X62500000Y-52250000D03*
X51500000Y-52250000D03*
D12*
X57000000Y-52250000D03*
D13*
X51920000Y-52250000D03*
D14*
X53190000Y-49710000D03*
D15*
X57000000Y-52250000D03*
D14*
X59540000Y-47170000D03*
D13*
X62080000Y-52250000D03*
D11*
X81500000Y-52250000D03*
X70500000Y-52250000D03*
D12*
X76000000Y-52250000D03*
D13*
X70920000Y-52250000D03*
D14*
X72190000Y-49710000D03*
D15*
X76000000Y-52250000D03*
D14*
X78540000Y-47170000D03*
D13*
X81080000Y-52250000D03*
D11*
X100500000Y-52250000D03*
X89500000Y-52250000D03*
D12*
X95000000Y-52250000D03*
D13*
X89920000Y-52250000D03*
D14*
X91190000Y-49710000D03*
D15*
X95000000Y-52250000D03*
D14*
X97540000Y-47170000D03*
D13*
X100080000Y-52250000D03*
D11*
X119500000Y-52250000D03*
X108500000Y-52250000D03*
D12*
X114000000Y-52250000D03*
D13*
X108920000Y-52250000D03*
D14*
X110190000Y-49710000D03*
D15*
X114000000Y-52250000D03*
D14*
X116540000Y-47170000D03*
D13*
X119080000Y-52250000D03*
D11*
X138500000Y-52250000D03*
X127500000Y-52250000D03*
D12*
X133000000Y-52250000D03*
D13*
X127920000Y-52250000D03*
D14*
X129190000Y-49710000D03*
D15*
X133000000Y-52250000D03*
D14*
X135540000Y-47170000D03*
D13*
X138080000Y-52250000D03*
D11*
X157500000Y-52250000D03*
X146500000Y-52250000D03*
D12*
X152000000Y-52250000D03*
D13*
X146920000Y-52250000D03*
D14*
X148190000Y-49710000D03*
D15*
X152000000Y-52250000D03*
D14*
X154540000Y-47170000D03*
D13*
X157080000Y-52250000D03*
D11*
X176500000Y-52250000D03*
X165500000Y-52250000D03*
D12*
X171000000Y-52250000D03*
D13*
X165920000Y-52250000D03*
D14*
X167190000Y-49710000D03*
D15*
X171000000Y-52250000D03*
D14*
X173540000Y-47170000D03*
D13*
X176080000Y-52250000D03*
D11*
X195500000Y-52250000D03*
X184500000Y-52250000D03*
D12*
X190000000Y-52250000D03*
D13*
X184920000Y-52250000D03*
D14*
X186190000Y-49710000D03*
D15*
X190000000Y-52250000D03*
D14*
X192540000Y-47170000D03*
D13*
X195080000Y-52250000D03*
D11*
X214500000Y-52250000D03*
X203500000Y-52250000D03*
D12*
X209000000Y-52250000D03*
D13*
X203920000Y-52250000D03*
D14*
X205190000Y-49710000D03*
D15*
X209000000Y-52250000D03*
D14*
X211540000Y-47170000D03*
D13*
X214080000Y-52250000D03*
D11*
X233500000Y-52250000D03*
X222500000Y-52250000D03*
D12*
X228000000Y-52250000D03*
D13*
X222920000Y-52250000D03*
D14*
X224190000Y-49710000D03*
D15*
X228000000Y-52250000D03*
D14*
X230540000Y-47170000D03*
D13*
X233080000Y-52250000D03*
D11*
X72000000Y-71250000D03*
X61000000Y-71250000D03*
D12*
X66500000Y-71250000D03*
D13*
X61420000Y-71250000D03*
D14*
X62690000Y-68710000D03*
D15*
X66500000Y-71250000D03*
D14*
X69040000Y-66170000D03*
D13*
X71580000Y-71250000D03*
D11*
X91000000Y-71250000D03*
X80000000Y-71250000D03*
D12*
X85500000Y-71250000D03*
D13*
X80420000Y-71250000D03*
D14*
X81690000Y-68710000D03*
D15*
X85500000Y-71250000D03*
D14*
X88040000Y-66170000D03*
D13*
X90580000Y-71250000D03*
D11*
X110000000Y-71250000D03*
X99000000Y-71250000D03*
D12*
X104500000Y-71250000D03*
D13*
X99420000Y-71250000D03*
D14*
X100690000Y-68710000D03*
D15*
X104500000Y-71250000D03*
D14*
X107040000Y-66170000D03*
D13*
X109580000Y-71250000D03*
D11*
X129000000Y-71250000D03*
X118000000Y-71250000D03*
D12*
X123500000Y-71250000D03*
D13*
X118420000Y-71250000D03*
D14*
X119690000Y-68710000D03*
D15*
X123500000Y-71250000D03*
D14*
X126040000Y-66170000D03*
D13*
X128580000Y-71250000D03*
D11*
X148000000Y-71250000D03*
X137000000Y-71250000D03*
D12*
X142500000Y-71250000D03*
D13*
X137420000Y-71250000D03*
D14*
X138690000Y-68710000D03*
D15*
X142500000Y-71250000D03*
D14*
X145040000Y-66170000D03*
D13*
X147580000Y-71250000D03*
D11*
X167000000Y-71250000D03*
X156000000Y-71250000D03*
D12*
X161500000Y-71250000D03*
D13*
X156420000Y-71250000D03*
D14*
X157690000Y-68710000D03*
D15*
X161500000Y-71250000D03*
D14*
X164040000Y-66170000D03*
D13*
X166580000Y-71250000D03*
D11*
X186000000Y-71250000D03*
X175000000Y-71250000D03*
D12*
X180500000Y-71250000D03*
D13*
X175420000Y-71250000D03*
D14*
X176690000Y-68710000D03*
D15*
X180500000Y-71250000D03*
D14*
X183040000Y-66170000D03*
D13*
X185580000Y-71250000D03*
D11*
X205000000Y-71250000D03*
X194000000Y-71250000D03*
D12*
X199500000Y-71250000D03*
D13*
X194420000Y-71250000D03*
D14*
X195690000Y-68710000D03*
D15*
X199500000Y-71250000D03*
D14*
X202040000Y-66170000D03*
D13*
X204580000Y-71250000D03*
D11*
X224000000Y-71250000D03*
X213000000Y-71250000D03*
D12*
X218500000Y-71250000D03*
D13*
X213420000Y-71250000D03*
D14*
X214690000Y-68710000D03*
D15*
X218500000Y-71250000D03*
D14*
X221040000Y-66170000D03*
D13*
X223580000Y-71250000D03*
D11*
X41125000Y-52250000D03*
X30125000Y-52250000D03*
D12*
X35625000Y-52250000D03*
D13*
X30545000Y-52250000D03*
D14*
X31815000Y-49710000D03*
D15*
X35625000Y-52250000D03*
D14*
X38165000Y-47170000D03*
D13*
X40705000Y-52250000D03*
D11*
X264375000Y-71250000D03*
X253375000Y-71250000D03*
D12*
X258875000Y-71250000D03*
D13*
X253795000Y-71250000D03*
D14*
X255065000Y-68710000D03*
D15*
X258875000Y-71250000D03*
D14*
X261415000Y-66170000D03*
D13*
X263955000Y-71250000D03*
D11*
X83875000Y-90250000D03*
X72875000Y-90250000D03*
D12*
X78375000Y-90250000D03*
D13*
X73295000Y-90250000D03*
D14*
X74565000Y-87710000D03*
D15*
X78375000Y-90250000D03*
D14*
X80915000Y-85170000D03*
D13*
X83455000Y-90250000D03*
D11*
X91000000Y-90250000D03*
X80000000Y-90250000D03*
D12*
X85500000Y-90250000D03*
D13*
X80420000Y-90250000D03*
D14*
X81690000Y-87710000D03*
D15*
X85500000Y-90250000D03*
D14*
X88040000Y-85170000D03*
D13*
X90580000Y-90250000D03*
D11*
X107625000Y-90250000D03*
X96625000Y-90250000D03*
D12*
X102125000Y-90250000D03*
D13*
X97045000Y-90250000D03*
D14*
X98315000Y-87710000D03*
D15*
X102125000Y-90250000D03*
D14*
X104665000Y-85170000D03*
D13*
X107205000Y-90250000D03*
D11*
X126625000Y-90250000D03*
X115625000Y-90250000D03*
D12*
X121125000Y-90250000D03*
D13*
X116045000Y-90250000D03*
D14*
X117315000Y-87710000D03*
D15*
X121125000Y-90250000D03*
D14*
X123665000Y-85170000D03*
D13*
X126205000Y-90250000D03*
D11*
X136125000Y-90250000D03*
X125125000Y-90250000D03*
D12*
X130625000Y-90250000D03*
D13*
X125545000Y-90250000D03*
D14*
X126815000Y-87710000D03*
D15*
X130625000Y-90250000D03*
D14*
X133165000Y-85170000D03*
D13*
X135705000Y-90250000D03*
D11*
X197875000Y-90250000D03*
X186875000Y-90250000D03*
D12*
X192375000Y-90250000D03*
D13*
X187295000Y-90250000D03*
D14*
X188565000Y-87710000D03*
D15*
X192375000Y-90250000D03*
D14*
X194915000Y-85170000D03*
D13*
X197455000Y-90250000D03*
D11*
X243000000Y-71250000D03*
X232000000Y-71250000D03*
D12*
X237500000Y-71250000D03*
D13*
X232420000Y-71250000D03*
D14*
X233690000Y-68710000D03*
D15*
X237500000Y-71250000D03*
D14*
X240040000Y-66170000D03*
D13*
X242580000Y-71250000D03*
D11*
X221625000Y-90250000D03*
X210625000Y-90250000D03*
D12*
X216125000Y-90250000D03*
D13*
X211045000Y-90250000D03*
D14*
X212315000Y-87710000D03*
D15*
X216125000Y-90250000D03*
D14*
X218665000Y-85170000D03*
D13*
X221205000Y-90250000D03*
D11*
X214500000Y-90250000D03*
X203500000Y-90250000D03*
D12*
X209000000Y-90250000D03*
D13*
X203920000Y-90250000D03*
D14*
X205190000Y-87710000D03*
D15*
X209000000Y-90250000D03*
D14*
X211540000Y-85170000D03*
D13*
X214080000Y-90250000D03*
D17*
X161070000Y-20412500D03*
X152430000Y-20412500D03*
D18*
X161070000Y-24592500D03*
X152430000Y-24592500D03*
D19*
X153860000Y-24062500D03*
X159640000Y-24062500D03*
G36*
X41592569Y-91016923D02*
G01*
X41591641Y-91018612D01*
X41585731Y-91022363D01*
X41542476Y-91069402D01*
X41528596Y-91131503D01*
X41547623Y-91192222D01*
X41594441Y-91235273D01*
X41652928Y-91246588D01*
X41654438Y-91247899D01*
X41654059Y-91249863D01*
X41652618Y-91250551D01*
X41631961Y-91251272D01*
X41388242Y-91299530D01*
X41155365Y-91386136D01*
X40939337Y-91508857D01*
X40928480Y-91517587D01*
X40926504Y-91517893D01*
X40925251Y-91516334D01*
X40925769Y-91514659D01*
X40965067Y-91472811D01*
X40979597Y-91410862D01*
X40961206Y-91349944D01*
X40914829Y-91306392D01*
X40850018Y-91291904D01*
X40823067Y-91293317D01*
X40821285Y-91292409D01*
X40821180Y-91290412D01*
X40822615Y-91289350D01*
X40987095Y-91260348D01*
X41177965Y-91186314D01*
X41256873Y-91136238D01*
X41257736Y-91135938D01*
X41312098Y-91130224D01*
X41491018Y-91072090D01*
X41589569Y-91015191D01*
X41591569Y-91015191D01*
X41592569Y-91016923D01*
G37*
G36*
X252356848Y-89772923D02*
G01*
X252363844Y-89784340D01*
X252364006Y-89784668D01*
X252366192Y-89790362D01*
X252403754Y-89842064D01*
X252461885Y-89867947D01*
X252525125Y-89861301D01*
X252582778Y-89815769D01*
X252587230Y-89809268D01*
X252589034Y-89808404D01*
X252590684Y-89809534D01*
X252590707Y-89811211D01*
X252519154Y-89971919D01*
X252480041Y-90155935D01*
X252480041Y-90344065D01*
X252519154Y-90528081D01*
X252586287Y-90678863D01*
X252586078Y-90680852D01*
X252584251Y-90681665D01*
X252583117Y-90681158D01*
X252536328Y-90638732D01*
X252474131Y-90625284D01*
X252413576Y-90644726D01*
X252367652Y-90698308D01*
X252338362Y-90764095D01*
X252338184Y-90764414D01*
X252337926Y-90764790D01*
X252336122Y-90765652D01*
X252334472Y-90764520D01*
X252334450Y-90762845D01*
X252415362Y-90581113D01*
X252460716Y-90381489D01*
X252463981Y-90147621D01*
X252424219Y-89946808D01*
X252353294Y-89774730D01*
X252353558Y-89772748D01*
X252355408Y-89771986D01*
X252356848Y-89772923D01*
G37*
G36*
X31481848Y-89772923D02*
G01*
X31488844Y-89784340D01*
X31489006Y-89784668D01*
X31491192Y-89790362D01*
X31528754Y-89842064D01*
X31586885Y-89867947D01*
X31650125Y-89861301D01*
X31707778Y-89815769D01*
X31712230Y-89809268D01*
X31714034Y-89808404D01*
X31715684Y-89809534D01*
X31715707Y-89811211D01*
X31644154Y-89971919D01*
X31605041Y-90155935D01*
X31605041Y-90344065D01*
X31644154Y-90528081D01*
X31711287Y-90678863D01*
X31711078Y-90680852D01*
X31709251Y-90681665D01*
X31708117Y-90681158D01*
X31661328Y-90638732D01*
X31599131Y-90625284D01*
X31538576Y-90644726D01*
X31492652Y-90698308D01*
X31463362Y-90764095D01*
X31463184Y-90764414D01*
X31462926Y-90764790D01*
X31461122Y-90765652D01*
X31459472Y-90764520D01*
X31459450Y-90762845D01*
X31540362Y-90581113D01*
X31585716Y-90381489D01*
X31588981Y-90147621D01*
X31549219Y-89946808D01*
X31478294Y-89774730D01*
X31478558Y-89772748D01*
X31480408Y-89771986D01*
X31481848Y-89772923D01*
G37*
G36*
X263030900Y-89754164D02*
G01*
X263030956Y-89755860D01*
X262955112Y-89932817D01*
X262912547Y-90133068D01*
X262909689Y-90337779D01*
X262946645Y-90539139D01*
X263012813Y-90706260D01*
X263012520Y-90708238D01*
X263010661Y-90708975D01*
X263009221Y-90707996D01*
X263000725Y-90693281D01*
X262955540Y-90648095D01*
X262894074Y-90631625D01*
X262832664Y-90648080D01*
X262795793Y-90689029D01*
X262793154Y-90689325D01*
X262791222Y-90687962D01*
X262785192Y-90696511D01*
X262783377Y-90697350D01*
X262781742Y-90696197D01*
X262781731Y-90694545D01*
X262855846Y-90528081D01*
X262894959Y-90344065D01*
X262894959Y-90155935D01*
X262855846Y-89971919D01*
X262786852Y-89816957D01*
X262787061Y-89814968D01*
X262788888Y-89814155D01*
X262790345Y-89815037D01*
X262792058Y-89817615D01*
X262839992Y-89859875D01*
X262902370Y-89872452D01*
X262962645Y-89852167D01*
X263008401Y-89796561D01*
X263023495Y-89760120D01*
X263023666Y-89759796D01*
X263027441Y-89753983D01*
X263029223Y-89753075D01*
X263030900Y-89754164D01*
G37*
G36*
X42155900Y-89754164D02*
G01*
X42155956Y-89755860D01*
X42080112Y-89932817D01*
X42037547Y-90133068D01*
X42034689Y-90337779D01*
X42071645Y-90539139D01*
X42137813Y-90706260D01*
X42137520Y-90708238D01*
X42135661Y-90708975D01*
X42134221Y-90707996D01*
X42125725Y-90693281D01*
X42080540Y-90648095D01*
X42019074Y-90631625D01*
X41957664Y-90648080D01*
X41920793Y-90689029D01*
X41918154Y-90689325D01*
X41916222Y-90687962D01*
X41910192Y-90696511D01*
X41908377Y-90697350D01*
X41906742Y-90696197D01*
X41906731Y-90694545D01*
X41980846Y-90528081D01*
X42019959Y-90344065D01*
X42019959Y-90155935D01*
X41980846Y-89971919D01*
X41911852Y-89816957D01*
X41912061Y-89814968D01*
X41913888Y-89814155D01*
X41915345Y-89815037D01*
X41917058Y-89817615D01*
X41964992Y-89859875D01*
X42027370Y-89872452D01*
X42087645Y-89852167D01*
X42133401Y-89796561D01*
X42148495Y-89760120D01*
X42148666Y-89759796D01*
X42152441Y-89753983D01*
X42154223Y-89753075D01*
X42155900Y-89754164D01*
G37*
G36*
X125972624Y-89005370D02*
G01*
X126131108Y-89099847D01*
X126362122Y-89191312D01*
X126604774Y-89244662D01*
X126852846Y-89258531D01*
X127093284Y-89233260D01*
X127095111Y-89234073D01*
X127095320Y-89236062D01*
X127094287Y-89237085D01*
X127047444Y-89257356D01*
X127009505Y-89308441D01*
X127002192Y-89371652D01*
X127027509Y-89430157D01*
X127055149Y-89455751D01*
X127102213Y-89487496D01*
X127103090Y-89489294D01*
X127101972Y-89490952D01*
X127100095Y-89490886D01*
X126991018Y-89427910D01*
X126812098Y-89369776D01*
X126759127Y-89364208D01*
X126758218Y-89363877D01*
X126703928Y-89327258D01*
X126515193Y-89247921D01*
X126314650Y-89206756D01*
X126109929Y-89205326D01*
X125948366Y-89236147D01*
X125946477Y-89235489D01*
X125946102Y-89233524D01*
X125946991Y-89232450D01*
X125997016Y-89203569D01*
X126028833Y-89148463D01*
X126028834Y-89084923D01*
X125980531Y-89015810D01*
X125970450Y-89008724D01*
X125969608Y-89006910D01*
X125970758Y-89005274D01*
X125972624Y-89005370D01*
G37*
G36*
X32691878Y-88984726D02*
G01*
X32691403Y-88986151D01*
X32649744Y-89034929D01*
X32638147Y-89097498D01*
X32659388Y-89157479D01*
X32707775Y-89198804D01*
X32770610Y-89210450D01*
X32781119Y-89209623D01*
X32782924Y-89210484D01*
X32783081Y-89212478D01*
X32781651Y-89213582D01*
X32623822Y-89243690D01*
X32434010Y-89320379D01*
X32367658Y-89363799D01*
X32366772Y-89364114D01*
X32312902Y-89369776D01*
X32133982Y-89427910D01*
X32030215Y-89487821D01*
X32028215Y-89487821D01*
X32027215Y-89486089D01*
X32028120Y-89484416D01*
X32035249Y-89479750D01*
X32077845Y-89432109D01*
X32090857Y-89369820D01*
X32070983Y-89309372D01*
X32023583Y-89266991D01*
X31949850Y-89255049D01*
X31924810Y-89258746D01*
X31924508Y-89258767D01*
X31890451Y-89258589D01*
X31888724Y-89257580D01*
X31888734Y-89255580D01*
X31890252Y-89254600D01*
X32099940Y-89232561D01*
X32339705Y-89167418D01*
X32565964Y-89064782D01*
X32688775Y-88983186D01*
X32690771Y-88983061D01*
X32691878Y-88984726D01*
G37*
G36*
X80462122Y-86651312D02*
G01*
X80545131Y-86669562D01*
X80546608Y-86670910D01*
X80546188Y-86672853D01*
X80459457Y-86769178D01*
X80379603Y-86893087D01*
X80377824Y-86894002D01*
X80376143Y-86892918D01*
X80376228Y-86890941D01*
X80431784Y-86802377D01*
X80450575Y-86741295D01*
X80436400Y-86679402D01*
X80364751Y-86619495D01*
X80332258Y-86609125D01*
X80331977Y-86609011D01*
X80282880Y-86584639D01*
X80281773Y-86582974D01*
X80282662Y-86581182D01*
X80284505Y-86580988D01*
X80462122Y-86651312D01*
G37*
G36*
X211087122Y-86651312D02*
G01*
X211170131Y-86669562D01*
X211171608Y-86670910D01*
X211171188Y-86672853D01*
X211084457Y-86769178D01*
X211004603Y-86893087D01*
X211002824Y-86894002D01*
X211001143Y-86892918D01*
X211001228Y-86890941D01*
X211056784Y-86802377D01*
X211075575Y-86741295D01*
X211061400Y-86679402D01*
X210989751Y-86619495D01*
X210957258Y-86609125D01*
X210956977Y-86609011D01*
X210907880Y-86584639D01*
X210906773Y-86582974D01*
X210907662Y-86581182D01*
X210909505Y-86580988D01*
X211087122Y-86651312D01*
G37*
G36*
X196013959Y-83695895D02*
G01*
X196013088Y-83697689D01*
X195905370Y-83770894D01*
X195905867Y-83771625D01*
X195905536Y-83774249D01*
X195869032Y-83806435D01*
X195848740Y-83866746D01*
X195861330Y-83929160D01*
X195886927Y-83960431D01*
X195887250Y-83962405D01*
X195885702Y-83963672D01*
X195884238Y-83963340D01*
X195729424Y-83855743D01*
X195728572Y-83853934D01*
X195729688Y-83852303D01*
X195899502Y-83769479D01*
X196010846Y-83694377D01*
X196012841Y-83694237D01*
X196013959Y-83695895D01*
G37*
M02*
