M48
; DRILL file {KiCad (5.99.0-2043-g129c16cf7)} date 07/05/20 22:32:55
; FORMAT={-:-/ absolute / metric / decimal}
; #@! TF.CreationDate,2020-07-05T22:32:55+02:00
; #@! TF.GenerationSoftware,Kicad,Pcbnew,(5.99.0-2043-g129c16cf7)
; #@! TF.FileFunction,Plated,1,2,PTH
FMAT,2
METRIC
T1C0.400
T2C0.600
%
G90
G05
T1
X30.226Y-35.814
X30.632Y-85.09
X32.41Y-97.434
X33.782Y-54.864
X35.064Y-80.834
X35.544Y-41.672
X36.575Y-98.912
X37.084Y-79.654
X37.592Y-60.706
X38.252Y-74.727
X38.252Y-87.528
X39.421Y-93.167
X39.573Y-95.91
X40.996Y-61.366
X41.402Y-81.799
X42.58Y-79.645
X42.672Y-59.03
X44.19Y-36.83
X45.974Y-55.626
X47.549Y-56.947
X48.006Y-36.576
X49.022Y-78.791
X49.276Y-35.814
X49.53Y-42.418
X49.965Y-47.425
X50.851Y-77.927
X51.511Y-82.499
X51.664Y-80.62
X52.426Y-84.328
X53.418Y-61.812
X53.442Y-80.569
X54.102Y-75.59
X54.118Y-41.672
X54.61Y-54.864
X55.474Y-92.913
X59.059Y-60.362
X59.08Y-66.548
X61.671Y-87.274
X61.874Y-98.755
X62.293Y-78.575
X62.992Y-36.576
X64.259Y-74.868
X65.013Y-89.316
X66.294Y-94.996
X66.345Y-97.333
X67.564Y-55.626
X67.869Y-42.469
X68.326Y-46.99
X68.58Y-35.814
X69.089Y-79.678
X72.034Y-78.943
X72.212Y-62.162
X73.422Y-41.672
X73.66Y-54.864
X75.882Y-78.448
X75.895Y-93.624
X76.302Y-98.501
X77.419Y-66.04
X77.572Y-76.149
X78.337Y-60.311
X81.483Y-98.857
X81.585Y-92.862
X81.788Y-36.576
X83.109Y-74.868
X83.109Y-98.247
X83.21Y-93.624
X85.344Y-55.626
X86.36Y-42.672
X87.63Y-35.814
X87.63Y-47.752
X87.884Y-92.862
X88.386Y-80.005
X88.748Y-98.755
X90.826Y-62.511
X92.091Y-63.838
X92.186Y-41.672
X92.456Y-54.864
X92.862Y-78.384
X96.472Y-77.684
X97.028Y-63.703
X97.065Y-60.209
X97.282Y-75.743
X99.314Y-93.624
X100.076Y-36.576
X102.464Y-74.868
X104.394Y-55.626
X105.613Y-42.52
X105.916Y-99.075
X106.68Y-35.814
X106.68Y-47.244
X107.489Y-79.945
X108.868Y-61.517
X110.693Y-78.892
X110.998Y-54.864
X111.236Y-41.672
X113.843Y-64.922
X115.976Y-78.232
X116.014Y-60.311
X116.637Y-75.692
X118.669Y-93.624
X118.72Y-98.501
X119.38Y-36.576
X121.209Y-74.828
X123.698Y-55.626
X124.206Y-92.812
X124.46Y-42.672
X124.56Y-99.075
X125.222Y-47.752
X126.238Y-35.814
X126.741Y-80.753
X128.219Y-98.552
X128.27Y-93.523
X130.286Y-41.272
X130.302Y-54.864
X130.672Y-63.489
X132.057Y-64.696
X132.588Y-93.066
X133.198Y-98.704
X133.604Y-30.988
X135.219Y-60.311
X135.687Y-79.4
X136.906Y-36.576
X138.938Y-36.576
X140.157Y-74.828
X141.224Y-55.626
X145.025Y-80.151
X145.136Y-29.667
X145.339Y-82.347
X145.999Y-76.81
X146.964Y-80.975
X148.946Y-96.012
X149.098Y-54.864
X149.352Y-31.242
X149.691Y-24.809
X150.571Y-45.364
X150.938Y-63.99
X151.007Y-38.076
X151.994Y-66.345
X152.502Y-37.643
X152.552Y-97.942
X152.756Y-93.37
X153.731Y-60.565
X154.178Y-40.894
X154.424Y-38.346
X154.542Y-28.283
X154.686Y-32.512
X155.204Y-78.634
X156.442Y-28.172
X156.566Y-75.844
X156.718Y-36.576
X156.718Y-54.864
X156.82Y-98.755
X157.582Y-55.829
X157.683Y-44.298
X157.683Y-80.874
X157.956Y-28.172
X158.902Y-92.862
X158.902Y-98.044
X158.929Y-60.451
X159.512Y-74.828
X159.817Y-54.915
X160.087Y-43.164
X160.172Y-30.226
X160.713Y-61.653
X160.833Y-55.778
X162.458Y-47.244
X163.973Y-79.645
X164.084Y-28.448
X164.287Y-59.08
X164.592Y-30.226
X164.592Y-42.621
X165.049Y-94.539
X166.273Y-98.276
X167.488Y-58.928
X168.199Y-42.113
X168.434Y-25.654
X168.434Y-28.702
X169.172Y-54.824
X170.171Y-63.387
X170.231Y-87.427
X172.009Y-90.627
X173.025Y-64.414
X173.126Y-96.063
X173.126Y-98.095
X173.404Y-60.527
X175.92Y-79.248
X176.276Y-37.338
X177.289Y-37.325
X178.104Y-75.312
X178.209Y-35.455
X179.075Y-41.007
X180.594Y-55.626
X180.95Y-42.164
X182.27Y-47.346
X182.73Y-79.779
X183.134Y-35.814
X183.642Y-62.433
X185.42Y-77.927
X187.198Y-54.864
X187.452Y-41.656
X188.387Y-63.953
X189.89Y-93.726
X190.551Y-76.556
X192.179Y-60.738
X195.072Y-36.83
X196.823Y-75.611
X197.206Y-98.704
X199.39Y-55.626
X199.695Y-42.266
X201.422Y-47.244
X201.93Y-35.814
X202.474Y-80.527
X205.201Y-79.827
X205.74Y-63.449
X206.502Y-41.656
X206.621Y-97.621
X206.807Y-93.675
X207.01Y-54.864
X209.122Y-64.505
X209.144Y-36.474
X209.347Y-42.469
X209.702Y-78.74
X210.679Y-61.023
X212.0Y-98.198
X212.598Y-77.572
X212.903Y-92.761
X213.36Y-97.848
X213.617Y-73.612
X213.868Y-93.624
X215.29Y-76.302
X215.392Y-36.83
X218.237Y-92.812
X218.338Y-97.841
X218.643Y-53.188
X218.73Y-55.512
X219.96Y-42.363
X220.472Y-46.99
X220.98Y-35.814
X221.362Y-80.527
X221.691Y-57.607
X223.164Y-96.266
X223.926Y-79.553
X224.587Y-56.947
X224.739Y-76.657
X225.26Y-41.618
X225.552Y-54.864
X226.771Y-76.098
X227.178Y-63.692
X227.686Y-94.691
X227.962Y-64.93
X228.092Y-43.434
X229.26Y-42.418
X229.44Y-71.323
X230.192Y-61.682
X231.191Y-61.722
X231.8Y-66.446
X231.941Y-81.014
X233.172Y-93.167
X233.59Y-41.464
X233.985Y-45.11
X234.524Y-55.71
X234.751Y-59.889
X235.29Y-75.56
X235.764Y-36.486
X235.787Y-55.557
X235.814Y-62.116
X235.841Y-60.705
X235.963Y-59.033
X235.966Y-69.037
X236.037Y-56.527
X236.106Y-53.086
X237.287Y-43.84
X237.606Y-52.789
X237.642Y-59.893
X238.143Y-94.506
X238.201Y-97.688
X238.919Y-61.258
X239.039Y-54.61
X239.166Y-57.023
X239.737Y-81.014
X239.776Y-35.814
X239.937Y-52.049
X240.335Y-73.101
X240.69Y-45.568
X240.944Y-58.547
X241.148Y-97.536
X241.605Y-73.101
X241.808Y-51.359
X242.524Y-73.495
X242.722Y-54.483
X242.722Y-57.023
X243.119Y-61.271
X243.637Y-51.359
X244.348Y-41.656
X244.805Y-73.152
X246.091Y-65.36
X246.306Y-61.76
X246.583Y-68.123
X246.634Y-52.07
X246.971Y-61.014
X247.04Y-54.254
X247.345Y-80.264
X247.853Y-70.663
X248.088Y-61.934
X248.859Y-63.182
X249.631Y-54.102
X249.784Y-91.491
X249.809Y-47.244
X249.981Y-65.579
X250.393Y-93.675
X251.054Y-79.756
X251.334Y-65.506
X251.481Y-60.38
X251.674Y-74.97
X252.095Y-42.418
X252.222Y-55.27
X252.774Y-80.714
X252.832Y-76.352
X253.19Y-37.034
X253.381Y-63.942
X253.441Y-62.382
X253.695Y-28.448
X256.337Y-97.231
X257.06Y-74.97
X257.15Y-51.308
X257.283Y-61.207
X258.826Y-35.814
X260.951Y-79.84
X261.62Y-69.596
X261.772Y-87.478
X261.925Y-80.366
X262.28Y-54.712
X262.992Y-55.474
X262.992Y-86.817
X263.144Y-41.656
X263.296Y-96.825
X263.652Y-36.83
X266.395Y-92.659
X266.598Y-37.44
X268.63Y-89.459
T2
G00X152.43Y-20.113
M15
G01X152.43Y-20.712
M16
G05
G00X152.43Y-24.043
M15
G01X152.43Y-25.142
M16
G05
G00X161.07Y-20.113
M15
G01X161.07Y-20.712
M16
G05
G00X161.07Y-24.043
M15
G01X161.07Y-25.142
M16
G05
T0
M30
